<svg width="40" height="40" viewBox="0 0 40 40" fill="none" xmlns="http://www.w3.org/2000/svg">
<circle cx="20" cy="20" r="20" fill="white"/>
<path d="M20.57 9.53C22.77 9.53 24.48 10.07 25.7 11.15C26.94 12.21 27.56 13.74 27.56 15.74C27.56 17.72 26.94 19.25 25.7 20.33C24.48 21.39 22.77 21.92 20.57 21.92H17.27V29H13.7V9.53H20.57ZM20.57 18.83C21.67 18.83 22.5 18.54 23.06 17.96C23.62 17.38 23.9 16.64 23.9 15.74C23.9 14.82 23.62 14.07 23.06 13.49C22.5 12.89 21.67 12.59 20.57 12.59H17.27V18.83H20.57Z" fill="#28A987"/>
</svg>
