<svg height="480pt" viewBox="-56 0 480 480" width="480pt" xmlns="http://www.w3.org/2000/svg"><path d="m72 24h-64c-4.417969 0-8 3.582031-8 8v19.800781c.0117188 11.148438 9.050781 20.1875 20.199219 20.199219h11.800781v16c0 4.417969 3.582031 8 8 8h32c22.082031.027344 39.972656 17.917969 40 40v192c.035156 30.914062 25.085938 55.964844 56 56v32h-32c-8.835938 0-16 7.164062-16 16v40c0 4.417969 3.582031 8 8 8h160c4.417969 0 8-3.582031 8-8v-40c0-8.835938-7.164062-16-16-16h-32v-168h30.496094c10.863281 18.816406 33.007812 27.988281 53.992187 22.363281 20.984375-5.621093 35.578125-24.636719 35.578125-46.363281s-14.59375-40.742188-35.578125-46.363281c-20.984375-5.625-43.128906 3.546875-53.992187 22.363281h-30.496094v-24c4.417969 0 8-3.582031 8-8v-32c0-4.417969-3.582031-8-8-8h-16v-80h24c13.253906 0 24-10.746094 24-24s-10.746094-24-24-24h-96c-13.253906 0-24 10.746094-24 24s10.746094 24 24 24h24v80h-16c-4.417969 0-8 3.582031-8 8v32c0 4.417969 3.582031 8 8 8v192c-22.082031-.027344-39.972656-17.917969-40-40v-192c-.054688-27.804688-20.484375-51.367188-48-55.359375v-48.640625c0-4.417969-3.582031-8-8-8zm-51.800781 32c-2.316407-.003906-4.195313-1.882812-4.199219-4.199219v-11.800781h16v16zm43.800781 24h-16v-40h16zm256 112c9.667969-.027344 18.828125 4.332031 24.90625 11.851562 6.078125 7.519532 8.417969 17.386719 6.367188 26.835938l-15.378907-7.679688c-.46875-7.199218-5.714843-13.1875-12.789062-14.601562s-14.21875 2.09375-17.421875 8.558594-1.667969 14.273437 3.742187 19.046875c5.410157 4.773437 13.351563 5.320312 19.367188 1.332031l15.199219 7.601562c-9.691407 11.09375-25.710938 14.121094-38.78125 7.328126-13.070313-6.792969-19.796876-21.640626-16.289063-35.945313 3.511719-14.308594 16.347656-24.355469 31.078125-24.328125zm-64 24h16v16h-16zm24 248h-144v-32h144zm-120-432c-4.417969 0-8-3.582031-8-8s3.582031-8 8-8h96c4.417969 0 8 3.582031 8 8s-3.582031 8-8 8h-32c-4.417969 0-8 3.582031-8 8v24h-16v-24c0-4.417969-3.582031-8-8-8zm40 48h16v48h-16zm-24 64h64v16h-64zm56 32v176h-16v16h16v16h-32v16h32v16h-48v-240zm0 0"/></svg>