<svg width="40" height="40" viewBox="0 0 40 40" fill="none" xmlns="http://www.w3.org/2000/svg">
<circle cx="20" cy="20" r="20" fill="white"/>
<mask id="mask0" mask-type="alpha" maskUnits="userSpaceOnUse" x="0" y="0" width="40" height="40">
<circle cx="20" cy="20" r="20" fill="white"/>
</mask>
<g mask="url(#mask0)">
<circle cx="40" cy="21" r="11.5" stroke="#28A987" stroke-width="3" stroke-linecap="round" stroke-linejoin="round"/>
<path d="M7 12L15 12" stroke="#28A987" stroke-width="2" stroke-linecap="round" stroke-linejoin="round"/>
<path d="M11 14V16" stroke="#28A987" stroke-linecap="round" stroke-linejoin="round"/>
<path d="M13 16H9V33H13V16Z" fill="#28A987" stroke="#28A987" stroke-linecap="round" stroke-linejoin="round"/>
<path d="M13 32.5C15.5 32.5 20 33 20 28C20 23 18 24 18 20C18 16 22.5 16 24.5 16" stroke="#28A987" stroke-width="2" stroke-linecap="round" stroke-linejoin="round"/>
<path d="M24.5 16H26.5" stroke="#28A987" stroke-linecap="round" stroke-linejoin="round"/>
<path d="M26 15C26 14.7239 25.7761 14.5 25.5 14.5C25.2239 14.5 25 14.7239 25 15H26ZM25 17C25 17.2761 25.2239 17.5 25.5 17.5C25.7761 17.5 26 17.2761 26 17H25ZM25 15V17H26V15H25Z" fill="#28A987"/>
</g>
</svg>
