<svg id="Laag_1" data-name="Laag 1" xmlns="http://www.w3.org/2000/svg" viewBox="0 0 396.85 184.25"><defs><style>.cls-1{fill:none;stroke:#bbbdbe;stroke-miterlimit:12;stroke-width:3px;}.cls-2{fill:#bbbdbe;}.cls-3{fill:#fff;}.cls-4{fill:#2a4859;}.cls-5{fill:#fcc200;fill-rule:evenodd;}.cls-6{fill:#97bf0d;}</style></defs><title>logo</title><path class="cls-1" d="M270.12,145.59a3,3,0,1,1,2.78-3.2,3,3,0,0,1-2.78,3.2Zm-.77-11a3,3,0,1,1,2.78-3.2,3,3,0,0,1-2.78,3.2Zm-.77-11a3,3,0,1,1,2.78-3.2,3,3,0,0,1-2.78,3.2Zm-.77-11a3,3,0,1,1,2.78-3.2,3,3,0,0,1-2.78,3.2Zm-.77-11a3,3,0,1,1,2.78-3.2,3,3,0,0,1-2.78,3.2Zm-.77-11a3,3,0,1,1,2.78-3.2,3,3,0,0,1-2.78,3.2Zm-.77-11a3,3,0,1,1,2.78-3.2,3,3,0,0,1-2.78,3.2Zm-.77-11a3,3,0,1,1,2.78-3.2,3,3,0,0,1-2.78,3.2ZM264,58a3,3,0,1,1,2.78-3.2A3,3,0,0,1,264,58Zm-.77-11a3,3,0,1,1,2.78-3.2,3,3,0,0,1-2.78,3.2Zm-.77-11a3,3,0,1,1,2.78-3.2,3,3,0,0,1-2.78,3.2Z" transform="translate(0 0)"/><path class="cls-2" d="M364.53.06,281.2,5.87a22.65,22.65,0,0,0-21,24.16l.06.84a3,3,0,0,1,1.81-.79,3,3,0,1,1,.42,6,3,3,0,0,1-1.91-.53l.44,6.31a3,3,0,0,1,1.81-.79,3,3,0,1,1,.42,6,3,3,0,0,1-1.91-.53l.44,6.31a3,3,0,0,1,1.81-.79,3,3,0,1,1,.42,6,3,3,0,0,1-1.91-.53l.44,6.31a3,3,0,0,1,1.81-.8,3,3,0,1,1,.42,6,3,3,0,0,1-1.91-.53l.44,6.31a3,3,0,0,1,1.81-.8,3,3,0,1,1,.42,6,3,3,0,0,1-1.91-.54l.44,6.31a3,3,0,0,1,1.81-.8,3,3,0,1,1,.42,6,3,3,0,0,1-1.91-.53l.44,6.31a3,3,0,1,1,.33,4.65l.44,6.31a3,3,0,0,1,1.81-.79,3,3,0,1,1,.42,6,3,3,0,0,1-1.91-.54l.44,6.31a3,3,0,0,1,1.81-.79,3,3,0,1,1,.42,6,3,3,0,0,1-1.91-.54l.44,6.31a3,3,0,0,1,1.81-.79,3,3,0,1,1,.42,6,3,3,0,0,1-1.91-.54l.44,6.31a3,3,0,0,1,1.81-.79,3,3,0,1,1,.42,6,3,3,0,0,1-1.9-.53,22.66,22.66,0,0,0,24.2,21l83.33-5.82a22.65,22.65,0,0,0,21-24.16l-8.06-115A22.67,22.67,0,0,0,364.53.06Z" transform="translate(0 0)"/><path class="cls-3" d="M363.46,2.52,282.6,8.16a22,22,0,0,0-20.47,21.92,3,3,0,0,1,.36,6l.35,5a3,3,0,0,1,.42,6l.35,5a3,3,0,0,1,.42,6l.35,5a3,3,0,0,1,.42,6l.35,5a3,3,0,0,1,.42,6l.35,5a3,3,0,0,1,.42,6l.35,5a3,3,0,0,1,.42,6l.35,5a3,3,0,0,1,.42,6l.35,5a3,3,0,0,1,.42,6l.35,5a3,3,0,0,1,.42,6l.35,5a3,3,0,0,1,.55,5.94,22,22,0,0,0,23.19,18l80.86-5.64a22,22,0,0,0,20.42-23.45L386.95,22.9A22,22,0,0,0,363.46,2.52Z" transform="translate(0 0)"/><path class="cls-4" d="M270.12,145.59a3,3,0,1,1-.42-6h0l-.35-5h0a3,3,0,1,1-.42-6h0l-.35-5h0a3,3,0,1,1-.42-6h0l-.35-5h0a3,3,0,1,1-.42-6h0l-.35-5h0a3,3,0,1,1-.42-6h0l-.35-5h0a3,3,0,1,1-.42-6h0l-.35-5h0a3,3,0,1,1-.42-6h.05l-.35-5h0a3,3,0,1,1-.42-6h0L264,58h0a3,3,0,1,1-.42-6h0l-.35-5h0a3,3,0,1,1-.42-6h0l-.35-5h0a3,3,0,1,1-.42-6h0V29.9a22.67,22.67,0,0,0-24.21-21L21.1,24a22.65,22.65,0,0,0-21,24.16l8.06,115a22.67,22.67,0,0,0,24.21,21l216.76-15.13a22.65,22.65,0,0,0,21.07-23.48Z" transform="translate(0 0)"/><path class="cls-3" d="M37.29,61a3.66,3.66,0,1,1,7.3-.5l1.93,27.24a3.66,3.66,0,1,1-7.3.5Z" transform="translate(0 0)"/><path class="cls-3" d="M49,60.93c-.17-2.4.92-4.26,3.5-4.43l12.07-.83a3.23,3.23,0,0,1,3.69,3.07,3.27,3.27,0,0,1-3.22,3.55l-8.56.59.5,7,8-.55a3.29,3.29,0,0,1,3.79,3.07,3.33,3.33,0,0,1-3.32,3.55l-8,.55L58,83.79l9-.62a3.23,3.23,0,0,1,3.69,3.07,3.27,3.27,0,0,1-3.22,3.55l-12.55.86a3.54,3.54,0,0,1-4-3.34Z" transform="translate(0 0)"/><path class="cls-3" d="M104,57.14c-.17-2.4.92-4.26,3.5-4.43l12.07-.83a3.23,3.23,0,0,1,3.69,3.07A3.27,3.27,0,0,1,120,58.49l-8.56.59.5,7,8-.55a3.29,3.29,0,0,1,3.79,3.07,3.33,3.33,0,0,1-3.32,3.55l-8,.55L113,80l9-.62a3.23,3.23,0,0,1,3.69,3.07A3.27,3.27,0,0,1,122.44,86l-12.55.86a3.54,3.54,0,0,1-4-3.34Z" transform="translate(0 0)"/><path class="cls-3" d="M153.6,53.72c-.17-2.4.92-4.26,3.5-4.44l12.07-.83a3.23,3.23,0,0,1,3.69,3.07,3.27,3.27,0,0,1-3.22,3.55l-8.57.59.5,7,8-.55a3.29,3.29,0,0,1,3.79,3.06A3.33,3.33,0,0,1,170,68.74l-8,.55.52,7.29,9-.62A3.23,3.23,0,0,1,175.24,79,3.27,3.27,0,0,1,172,82.58l-12.55.86a3.54,3.54,0,0,1-4-3.34Z" transform="translate(0 0)"/><path class="cls-3" d="M176.13,52.17c-.17-2.4.92-4.26,3.5-4.44l12.07-.83A3.23,3.23,0,0,1,195.38,50a3.27,3.27,0,0,1-3.22,3.55l-8.56.59.5,7,8-.55a3.29,3.29,0,0,1,3.79,3.06,3.33,3.33,0,0,1-3.32,3.56l-8,.55.52,7.29,9-.62a3.23,3.23,0,0,1,3.69,3.07A3.27,3.27,0,0,1,194.55,81L182,81.89a3.55,3.55,0,0,1-4-3.34Z" transform="translate(0 0)"/><path class="cls-3" d="M198.31,49.92a3.46,3.46,0,0,1,3.38-4,4.58,4.58,0,0,1,3.18,1.37l16.87,19.23h.1l-1.29-18.13a3.66,3.66,0,1,1,7.3-.5l1.93,27.24a3.47,3.47,0,0,1-3.38,4,4.69,4.69,0,0,1-3.18-1.37l-16.85-19h-.1l1.27,17.89a3.66,3.66,0,1,1-7.3.5Z" transform="translate(0 0)"/><path class="cls-3" d="M78.87,116.88c4.17-.28,6,1.69,6.26,5.86.89,12.58-6.77,22.61-20,23.52-13.43.93-23.5-8.93-24.46-22.43s7.56-24.63,21.05-25.56c10-.69,18.52,3.38,18.84,7.94.2,2.8-1.46,4.69-3.78,4.85-4.5.31-5.76-4.39-14.43-3.79-8.27.57-11.93,8-11.37,15.85s5.1,14.72,13.5,14.14c5.23-.36,11-3.64,10.52-11.08l-6.75.46a4.43,4.43,0,0,1-5-4.25,4.38,4.38,0,0,1,4.31-4.75Z" transform="translate(0 0)"/><path class="cls-3" d="M87.85,103c-.23-3.26,1.25-5.79,4.76-6L109,95.8a4.39,4.39,0,0,1,5,4.17,4.45,4.45,0,0,1-4.38,4.82L98,105.6l.68,9.52,10.85-.75a4.47,4.47,0,0,1,5.15,4.17,4.52,4.52,0,0,1-4.51,4.83l-10.85.75L100,134l12.24-.84a4.39,4.39,0,0,1,5,4.17,4.45,4.45,0,0,1-4.38,4.82l-17.06,1.17a4.82,4.82,0,0,1-5.44-4.54Z" transform="translate(0 0)"/><path class="cls-3" d="M118,99.9a4.71,4.71,0,0,1,4.6-5.43,6.24,6.24,0,0,1,4.32,1.86l22.93,26.14H150l-1.75-24.65a5,5,0,1,1,9.92-.68l2.63,37a4.71,4.71,0,0,1-4.6,5.43,6.37,6.37,0,0,1-4.32-1.87L129,111.92h-.13l1.73,24.32a5,5,0,1,1-9.92.69Z" transform="translate(0 0)"/><path class="cls-3" d="M163.7,96.49a4.75,4.75,0,0,1,4.62-5.17,4.66,4.66,0,0,1,5.3,4.48l1,14.08,15.06-18.2a5.21,5.21,0,0,1,3.71-2.09,4.8,4.8,0,0,1,5.23,4.36c.12,1.7-.84,3.14-2.87,5.44l-11.64,13L200.49,127c1.7,1.46,3,2.81,3.13,4.77.22,3.06-2.13,4.67-4.84,4.85-1.92.13-3.25-.89-5.24-2.72l-18.42-17.08,1.18,16.63a4.72,4.72,0,0,1-4.63,5c-2.84.19-5.09-1.49-5.29-4.36Z" transform="translate(0 0)"/><path class="cls-3" d="M212.37,97.72l-7.21.5A4.26,4.26,0,0,1,200.35,94a4.4,4.4,0,0,1,4.18-4.81l24.34-1.68a4.42,4.42,0,0,1,4.82,4.19,4.24,4.24,0,0,1-4.18,4.81l-7.21.5,2.32,32.73a5,5,0,1,1-9.92.68Z" transform="translate(0 0)"/><path class="cls-3" d="M83.08,54.39,75,54.95a3.55,3.55,0,0,0-3.48,4l1.91,26.86a3.56,3.56,0,0,0,4.1,3.33L86,88.51c10-.69,16.18-7.67,15.46-17.74C100.7,60.12,94,53.64,83.08,54.39Z" transform="translate(0 0)"/><path class="cls-3" d="M152,78.42l-8.89-8.16c4.91-1.11,8.73-4.41,8.36-9.69-.53-7.53-5.39-10.52-12.89-10l-8.56.59a3.42,3.42,0,0,0-3.48,4l1.91,27a3.66,3.66,0,1,0,7.3-.5L135,71.2h.1l11.72,12.16a3.8,3.8,0,0,0,2.91,1.05,3.7,3.7,0,0,0,3.39-3.94A3.11,3.11,0,0,0,152,78.42Z" transform="translate(0 0)"/><path class="cls-5" d="M328.16,57.65c-.23,0-.41.19-.63.22,0,.13.19.21.21.38s0,.07-.24.08-.27-.25-.49-.44c-.11,0-.15.2-.38.21s-.11-.18-.34-.17.06.19-.18.2-.15-.18-.27-.17c-.19.21-.26.5-.41.69-.07-.08-.06-.23-.09-.46l-.45,0,0,.39a2.21,2.21,0,0,1-.66.13l0,.39a2.2,2.2,0,0,1-.65.13c0,.13,0,.28-.05.37s-.14-.14-.17-.36c-.25,0-.52.55-.66.9-.07,0-.13-.14-.15-.27l-.44,0a.61.61,0,0,1-.46.32c0,.32-.16.62-.15.85s.21.22.23.39c-.46.22-.11.53-.55,1-.07-.16-.1-.36-.26-.45l0,.41c0,.24.18,0,.2.28s-.17.28-.23.45c-.07,0-.18-.18-.41-.14a1.42,1.42,0,0,0,.5.38l-.06.42c-.06,0-.11-.05-.14-.18l-.36.14a.94.94,0,0,1,.59.25c-.09.06-.19.43-.62.5l0,.36.39,0c.09.17.28.32.3.56a1.13,1.13,0,0,1-.42.75.37.37,0,0,0,.33-.18l.33,0a5.91,5.91,0,0,1-.62.61,2.94,2.94,0,0,1,.67.06c0,.07,0,.12-.17.15,0,.22.19.21.21.45s-.17.25-.14.48A.69.69,0,0,1,322,68a1.78,1.78,0,0,0-.42.64l.64,0c0-.13,0-.17.22-.29A1.88,1.88,0,0,1,323,69.4c0,.24-.17.25-.14.47.13,0,.14-.2.22-.29s.22,0,.25.26l.35,0c0-.13,0-.27.11-.28s.07.09.09.33c0,.47,0,.21-.33.62l.36,0c0-.12,0-.17.21-.28a2.61,2.61,0,0,0,.54.91c.12,0,.25-.13.31-.31l.25,0c.08.08.07.14.1.27.22,0,.23-.2.38-.3.08.16.27.32.29.55s-.17.25-.15.38.15-.2.22-.29a1.18,1.18,0,0,1,1.15.58c.12,0,.15-.11.21-.2l.42,0a1.38,1.38,0,0,0-.42.62c.24-.1.42-.41.67-.7l.43.05c0,.06-.18.14-.27.3l.87-.06c.09.18.11.38.27.47a3,3,0,0,1,0-.67.86.86,0,0,1,.49.44,1.1,1.1,0,0,1,.68-.52c.24,0,.11.18.35.17s.38-.46.79-.07l0-.48s-.08-.07.15-.08.15,0,.19.17a1.27,1.27,0,0,1,.8-.26c-.06-.16.11-.44.22-.67a.27.27,0,0,1,.26.17,1.3,1.3,0,0,1,.61-.24c0-.32.17-.57.15-.8s0-.33-.22-.37a2,2,0,0,1,.63-.48c0-.12-.2-.13-.3-.28.49-.41.47-.61.89-.81l0-.44c-.13,0-.19,0-.28-.06l0-.25c.08-.08.14-.07.27-.09s-.13-.26-.3-.32l0-.24c.08-.08.33-.09.46-.11a.43.43,0,0,0-.2-.31c.08-.17.16-.26.33-.61-.14,0-.37.14-.38-.09s0-.1.18-.14c-.11-.14-.25-.43-.51-.49,0-.07.14-.12.27-.15s-.2-.15-.29-.22,0-.22.26-.26a3.72,3.72,0,0,0-.53-.89,1.13,1.13,0,0,1,.42-.75c-.14,0-.25.08-.4.18a6.21,6.21,0,0,1-.59-1.29,3.27,3.27,0,0,1-.07.68c-.07,0-.16-.18-.33-.23.17-.16.15-.44.33-.66,0-.11-.2-.2-.23-.42-.32,0-.86-.29-.88-.48s.17-.2.15-.33l-.45,0a1,1,0,0,1-.1.66,8,8,0,0,1-.15-1.11,3,3,0,0,1-1.59-.76c-.12,0-.14.21-.21.3l-.34,0c-.08-.08-.06,0-.08-.23s.07-.26.16-.41c-.33,0-.41.19-.59.2a1.86,1.86,0,0,0-.75-.61,1.63,1.63,0,0,1-.06.48c-.07,0-.13-.14-.15-.27s-.13.19-.38.3c-.08-.08-.06,0-.07-.23s.16-.26.25-.42Z" transform="translate(0 0)"/><polygon class="cls-4" points="343.94 87.72 343.93 87.72 343.93 87.72 343.94 87.72"/><polygon class="cls-4" points="319.8 89.41 319.8 89.4 319.8 89.4 319.8 89.41"/><path class="cls-4" d="M339.77,84.69l0,.28.26,0A.77.77,0,0,0,339.77,84.69Z" transform="translate(0 0)"/><path class="cls-4" d="M311.51,84l.19-.11-.25,0Z" transform="translate(0 0)"/><path class="cls-4" d="M321.39,86.25l.39,0-.06-.07-.34,0Z" transform="translate(0 0)"/><path class="cls-4" d="M348.24,83.57a4.45,4.45,0,0,0,.38-.64l.25.46c0-.42.31-.88.22-1.28.16-.05.43,0,.42.19.23-.11.67-.67,1-.5l-.07-.07a3.05,3.05,0,0,0,.33-.55h0l.07-.09.21.07.21.07-.07-.08L351,81l.36-.16c0-.36.15-.71.13-1.07l.46-.11-.19-.22a1.38,1.38,0,0,1,.62-.5l0-.64.23.17.43-.22-.29-.22v0l-.05-.76.49.05c-.25.11-.13.43,0,.59.15-1.85.19-.73,1-1.85l-.48-.07,0-.34.46-.11a6.11,6.11,0,0,1,0-1l.14.18.45,0-.29-.22,0-.34c.64-.28.5-1.09.63-1.65l.41.16c-.05-.69-.2-2,.5-2.42l-.31-.31,0-.24.59-1.11c-.44-.55,0-.59-.08-1.12l.46-.12c-.18-.38-.51-1.16.1-1.33l-.29-.36-.12-.15.36-.16.26-.5-.3-.21.26-.16,0-.45-.47-.12.46-.1-.08-1.11c-.7,0-.06-.56.15-.73-.18-.46-1-1.27-.31-1.67l-.51-.48,0-.34c.21-.16.56-.18.63-.48l-.58,0-.08-.15a1.51,1.51,0,0,1,.43-.58l-.31-.31.27-.15-.29-.22.26-.25,0-.63c-.42,0-.91-.63-.54-1l-.67,0a.9.9,0,0,1,.44-.46l-.29-.22.26-.16,0-.64-.39,0L355,54l.17-.25A1.62,1.62,0,0,0,355,53l-.07.48-.45-.33.27-.3-.48-.07a1,1,0,0,1,.45-.47l-.51-.46a10.1,10.1,0,0,0,.6-.82l-.23.28-.34,0c-.07.18-.15-.34.08-.47-.27,0-.51-.17-.78-.14l-.08-.14c.44-.73-.22-.45-.25-.89l.18-.2-.24-.54-.22.19a.84.84,0,0,1-.49-.81l-.37.21-.1-.33.46-.1-.23-.44c-.1,0-.64,0-.49.22a4.49,4.49,0,0,0-.66-.46h0c-.18,0-.31-.25-.38-.36h-.15l.27-.3c-.21.05-.44.16-.67.21V47L350,47a.67.67,0,0,1-.34,0,.85.85,0,0,0,.13-.17.32.32,0,0,1,0-.16h.15a.91.91,0,0,1,.21-.27l-.32.18c-.5-.46-1.46-.51-1.3-1.41-.42,0-.83-.12-1.26-.11-.29-.5-1-.65-1.15-1.26a.77.77,0,0,1-.82.18l.16-.31-.29,0,.07-.47-.23.19a5.27,5.27,0,0,0-1.21-.1,1.79,1.79,0,0,0-.8-.69l.14-.41-.39.5-.34,0-.11-.46-.47,0V42l-.36,0,0,.43c.35.35.92.35.74,1l.36,0-.2-.21.39-.45a1.53,1.53,0,0,1-.13,1.14,1.44,1.44,0,0,0,.56-.5,3.16,3.16,0,0,1,.45,1.29l.58,0a2.12,2.12,0,0,0,.49.52l-.17.15,0,.45.22-.29c.38,0,.76.51,1.13.66l-.26.39.41-.19.07.18L346,47l.29-.29a6.89,6.89,0,0,1,.17,1.39,2.9,2.9,0,0,1,1.13-.08l-.18.15c.15.27.47.36.7.54a1,1,0,0,0-.63.36,1.34,1.34,0,0,1,.87.22l-.15.4c.5-.06.68.51,1.09.68l-.37.17a1.28,1.28,0,0,1,.26.8l.29-.2-.07.64.48.06a2.34,2.34,0,0,0-.43.61l.48.06-.27.15.29.22-.26.4c.31,0,.67-.43.94-.09l-.46.1c0,.53-.48.72.22,1.11l-.18-.33.06-.34.59,0-.17.23.2.23-.16.25,0,.64.29-.29c.19.49-.12.54-.25.95l.22-.28.44.32-.45.38c.1.46.72.62.74,1.11,0,.13-.16.38-.13.61a3.58,3.58,0,0,1,.87.22l-.18.14.2.31a2.43,2.43,0,0,0-.13.64l-.49,0a1.86,1.86,0,0,1,.25.61l.47,0-.43.62.4,0,.32.79-.35.3.2.22a1.64,1.64,0,0,1-.4,1.09l.6,0c.16.39-.18,2.13-.11,2.71l-.66,0a.66.66,0,0,1,.18.24h0a.46.46,0,0,1-.14.56l.39.08-.37.17c.11.23.4.39.42.66a.55.55,0,0,1-.61.48l0,.45.32-.3.24,0c.33.43-.4,1.18-.56,1.57l-.24,0-.1-.2.18-.17-.44.22.3.22,0,.34-.46.28c.1,0,.65,0,.52-.21l.33,0c-.23.39-.79.44-1,.84l.3,0,.08.15c-.14.18-.63.92-.12.94L351,72l.3.38-.46.1a1.39,1.39,0,0,0,.22.57c-.16.2-.46.39-.33.69l-.65.12-.16.54a.75.75,0,0,1,.68.21l-.64.12.2.28-.65.13,0,.66-.4-.16,0,.45.28.06-.27.16a3.61,3.61,0,0,1,0,.85l-.14-.17-.6,0c.15.36,0,.76.08,1.13l-.53,0v.07l0,.23c-.29.33-1-.14-1,.6.45-.23.43-.44,1-.28,0,.44-.43.69-.75.93l-.12-.47c-.36.45-.67.93-1,1.4l-.4-.16c.27.55,0,.82-.44,1a4.56,4.56,0,0,1-.82.18l0,.66-.16-.36-.45,0,0,.29a1.12,1.12,0,0,0-.65.37l.67,0a4.75,4.75,0,0,1-.4.54l-.27-.34-.36,0,0,.66-.25-.26-.34,0a3.41,3.41,0,0,1-.82,1.38,1.59,1.59,0,0,0-.26-.65,3.51,3.51,0,0,1-.19.76l6.45-.45c.4-.19.83-.35,1.21-.58Zm6.35-18.06a.47.47,0,0,1-.46.16A.47.47,0,0,1,354.59,65.51Zm-1.1-3.44a.47.47,0,0,1-.46.16A.47.47,0,0,1,353.49,62.06Zm-2.91,15.11a.47.47,0,0,1,.16.46A.47.47,0,0,1,350.58,77.17Z" transform="translate(0 0)"/><path class="cls-4" d="M315,83.38l-.1.28.71,0A1,1,0,0,1,315,83.38Z" transform="translate(0 0)"/><path class="cls-4" d="M309.88,82.58l.35,0c-.51-.93.45-.41.48-.11l-.18.2c0,.57.62.83.91,1.26l.25,0,.18-.11,0,.09h0a1.13,1.13,0,0,0,.31.55l.36-.22a3.65,3.65,0,0,1,.15.84l.27-.21-.06.56c.42-.45,1,.05,1.35.34a1.54,1.54,0,0,0-.65.26,9.86,9.86,0,0,1,1.06,0l-.36.39a3.74,3.74,0,0,1,1,.24h0l.56.21a1.4,1.4,0,0,0-.42.63c.94-.59.72-.16,1.61,0l-.27.31c.13,0,.62,0,.58-.22l.11.46.21-.29a1,1,0,0,1,.48.62.7.7,0,0,1,.67.2c-.23.14-.52.18-.63.45.32-.33,1.36,0,1.57.38h0l.37-.3a2.21,2.21,0,0,0,.08.27l6-.42a.91.91,0,0,0,.13-.37l.45,0,0,.36V89l-.65,0,0-.08-6,.42a.92.92,0,0,0,.25.37l.43-.18-.49-.14a1.05,1.05,0,0,1,1.16.29l-.25.43a1.07,1.07,0,0,0,.47-.68.86.86,0,0,1,.48.62c.39,0,1-.2,1.07.4l.33-.3.23,0c.1.27.38.42.56.63a1.38,1.38,0,0,1,.12-.68c.08.33.39.56.42.91l.35,0-.21-.38a1.59,1.59,0,0,1,.68,0l-.26.4a.63.63,0,0,1,.52.18,4.37,4.37,0,0,0,.53-.51,2.63,2.63,0,0,1-.08.65l.24-.19.15.17c.25,0,.44-.22.58-.41a2.85,2.85,0,0,1-.07.85,2.67,2.67,0,0,0,.66-.89l.16.36.39-.2.1.45.22-.29.16.26.45,0,.24-.48.24.17.28-.2a1.09,1.09,0,0,0,.39.64l0-.39c.26-.09.62-.08.79-.32a2.6,2.6,0,0,1-.08.65l.24-.19.34,0,.12.37c.46-.34,1.16-.28,1.51-.77l.16.26.45,0,.06-.28.16.26.45,0-.3-.38c.32-.3.94.1,1.19-.34l.16.36c.23,0,.4-.2.62-.23l.05-.47.15.27.44,0c.2-.35.48-.42.71,0l.42,0c.53-.4,1.78-.6,1.73-1.46l.46.36c.08-.05,1.17-.83.82-.25.35-.13.53-.56.65-.9.44.34.62.13.84-.07h0c.21-.19.47-.38,1-.07h0l-.19-.32c.18-.28.56-.52.83-.21l0-.35-.29-.21a10.24,10.24,0,0,1,1.6-.2l-.29-.22,0-.53c.25-.19.65-.24.71-.6l.39.26-.18-.31a3.18,3.18,0,0,1,.9-.59l-6.45.45a1.93,1.93,0,0,0,0,.2.89.89,0,0,1-.3-.18h0c-.1-.08-.19-.18-.3-.25a1.24,1.24,0,0,1,0,.28.84.84,0,0,1-.13.4A1.52,1.52,0,0,0,340,85l-.26,0,0,.21-.22-.19-.09-.08V85l0,.31-.67-.06.19.22-.23.44-.33,0-.08-.14,0-.43a1.1,1.1,0,0,1-.42.79l-.26-.45,0,.41-.47.11-.12.47-.1-.46-.44,0a2.52,2.52,0,0,0-.17.6l-.19.08c-.18-.14-.58-.35-.6,0l-.11-.46-.22.29-.27-.27-.39.5-.42-.05.18-.14-.14-.36a1,1,0,0,1-.28.6c-.54-.52-.93.32-1.08.74a.61.61,0,0,1-.37-.62l-.48-.06.14-.41-.38.5-.41-.15.21.28-.33.1-.1-.37-.43,0c-.19.21-.46.4-.53.7l-.24,0c-.16-.23-.3-.51-.56-.63l.19.29a3.89,3.89,0,0,1-1.14.44l.06-.48a.79.79,0,0,1-.83.18l.35-.16,0-.46c-.77,1.21-1.58-.08-2.5,0-.2.2-.58.38-.76.05h-1.1c.18-.17.24-.44.43-.59-.27,0-.46.25-.52.48l-.15-.27L323,87c.12-.74-.87-.44-1.24-.79l-.39,0c0,.33-.25.2-.34,0h0c-.06-.13,0-.28.28-.31l0-.46a6.62,6.62,0,0,0-.47.7l-.15-.17-.23.19-.42,0,.43-.6-.31-.18-.22.19-.47-.34-.21.2a.89.89,0,0,1-.47-.43l-.21.29a3.78,3.78,0,0,1-.64-.31l.18-.15-.17-.35-.06.39c-.51-.28-.93-.24-.88-1l-.51-.26-.21.3-.15-.26a1.85,1.85,0,0,0-.51-.09l-.71,0,0,.11a.47.47,0,0,1,0-.1l-2.49.17,2.49-.17a.91.91,0,0,1,.12-.74c-.44.22-.73-.4-1.15-.4a.92.92,0,0,1-.1.66l-.11-.65-.4,0c-.21-.4.12-.54.3-.84a4.05,4.05,0,0,1-.59.2l0,.47-.33-.06.16-.39c-.1,0-1-.36-.7,0-.32-.31-.75-.63-.22-1a1.17,1.17,0,0,0-.55.21c-.19,0-.37-.16-.6-.13l-.06-.11-1.91.13,0,.27A2.64,2.64,0,0,1,309.88,82.58Zm20.56,6.81a.48.48,0,0,1,.46-.16A.48.48,0,0,1,330.45,89.39Zm1.77-.3-.45,0,0-.26.45,0Zm1.93,0a.48.48,0,0,1,.46-.16A.48.48,0,0,1,334.15,89.13Zm.47-.21c0-.22-.23-.3-.22-.43l.35,0c.13.2.32.2.33.43Zm-10-1.25a.47.47,0,0,1-.46.16A.48.48,0,0,1,324.6,87.67ZM319.72,87l0-.35a1.56,1.56,0,0,1,.47.32Zm-7.84-4.46c.12,0,.26,0,0,.46Z" transform="translate(0 0)"/><path class="cls-4" d="M307.3,78.36c.06,0,.08.15.08.27h0v0c0,.08,0,.15,0,.18l-.07-.07-.17.27a2,2,0,0,1,.58.2l0-.6.35,0v.2l.23,0a2,2,0,0,1-.28-.74l-.36,0C307.66,78.23,307.55,78.33,307.3,78.36Z" transform="translate(0 0)"/><path class="cls-4" d="M308.54,78.79l-.25,0,.13.19A2.1,2.1,0,0,0,308.54,78.79Z" transform="translate(0 0)"/><path class="cls-4" d="M307.75,79.48v-.12l-.09.07c0,.24.26.57.15.81l.14-.19.33,0-.07.47.22-.19a.78.78,0,0,0,.46.42l-.27.24v.07l1.91-.13c-.23-.45,0-.53,0-1l-.45,0,0,.08h.1l0,.26-.25,0-.06.12-.39-.36-.16,0,0-.08a6,6,0,0,1-.93-.94,3.86,3.86,0,0,0-.33.46Z" transform="translate(0 0)"/><path class="cls-4" d="M307.05,78.5l.27.28.07-.11v0l-.28-.21.06,0h0l.4-.27h.07c0-.17-.2-.36-.49-.46l.19.29-.65.13.3.32-.27.3Z" transform="translate(0 0)"/><path class="cls-4" d="M308.07,79.28a.47.47,0,0,0-.17-.46A.47.47,0,0,0,308.07,79.28Z" transform="translate(0 0)"/><path class="cls-4" d="M307.73,79.25v.11l.09-.07Z" transform="translate(0 0)"/><path class="cls-4" d="M307.18,78.37h.12A.11.11,0,0,0,307.18,78.37Z" transform="translate(0 0)"/><path class="cls-4" d="M309.82,80.29h.09L310,80h-.2a.83.83,0,0,1-.11-.37c-.19,0-.29.16-.38.29l.11.1A.48.48,0,0,1,309.82,80.29Z" transform="translate(0 0)"/><path class="cls-4" d="M351.11,47.39l.39-.31a6.72,6.72,0,0,1-.79,0C350.83,47.12,351.06,47.21,351.11,47.39Z" transform="translate(0 0)"/><path class="cls-4" d="M350,47l.1,0,0-.37h-.2l-.1.17A.65.65,0,0,0,350,47Z" transform="translate(0 0)"/><path class="cls-4" d="M342.2,43.88l0-.45c-.13,0-.24-.19-.37-.16s.11.16.2.23-.18.19-.15.41Z" transform="translate(0 0)"/><path class="cls-4" d="M351.12,47.44s0,0,0,0l0,0Z" transform="translate(0 0)"/><path class="cls-4" d="M350.68,47.06h0Z" transform="translate(0 0)"/><path class="cls-4" d="M313.21,57.74l.29.22c-.22.19-.44.53-.26.81l0-.3c.13,0,.38,0,.48.07l-.18-.22a1.75,1.75,0,0,0,.3-1c-.08,0,.1-.08.14-.08a3.57,3.57,0,0,0,.81.13l-.29-.23,0-.34.46-.11a3.6,3.6,0,0,1,0-.85l.15.18c.3-.14.62-.24.9-.4l-.49-.08.05-.42a.48.48,0,0,0,.4.16l0-.37.32.35a4.26,4.26,0,0,1,0-.86.48.48,0,0,0,.4.16l0-.35-.28,0c.08-.26.46-.18.24-.56a4.55,4.55,0,0,1,1-.15l-.19-.22c.34-.86.82-.48,1.29-.52l-.2-.23,0-.34c.27-.11.71-.21.92.06.13-.26.57-.25.38-.63.49-.27,1.27-.27,1.54-.84l.25,0,.09.27.33-.3.31.27,0-.4c1.13-.93,1.34.47,2.21-.89l.42.05a.44.44,0,0,0-.14.41,1,1,0,0,1,.69-.52c.12,0,.2.06.14.18a2.05,2.05,0,0,0,.56-.42s0,0,0,.08v.11c0,.18-.17.29-.14.47l.22-.29.16.27c.23-.11.4-.5.66-.52s.59.42.74-.06c.18,0,0,.54-.08.66.35,0,1.17-.38,1.35-.09l.22-.2.26.17c.3-.2,1-.88,1.29-.33l-.46.1,0,.35a.55.55,0,0,1,.5.26l.2-.29c.19.18,1,.51,1.05.73-.09,0,0,.43,0,.48l0-.27c.37-.24.74,0,1,.23l.34,0,.05-.38.43.24-.17.14.2.32-.16.32c.12,0,.85,0,.69-.23l.87.94a.35.35,0,0,1-.15.33l.35,0a1,1,0,0,1,.1-.66l.11.64.44.17c-.42-.68.26-.38.5-.15l0,.25a.66.66,0,0,0-.45.36c.2,0,.39,0,.5.17l.22-.2.43.05-.27.3c.85-.06.44.47.33.48l0,.45.21-.29a1.79,1.79,0,0,1,.63.31l-.17.15,0,.45.34,0a.49.49,0,0,1,.67-.27c-.15.24-.42.31-.62.49l0,.44.67,0-.17.31c.68,0,.36.47.22.49.13.21.4.53.7.5,0,.12-.06.19-.17.12l.2.23,0,.34-.46.28c.65,0,.48-.44,1.15.08l-.46.09,0,.45.38-.21.09.32-.46.11a1.91,1.91,0,0,0,.67.59l-.18-.24,0-.42c.14.22.64.42.66.67,0,.07-.42.63,0,.55a3.38,3.38,0,0,0-.61.75l.24-.19.43.24.12,1.66c-.59.09.44.84-.13,1a1.24,1.24,0,0,1,.25.79c.2-.19.41,0,.48.21l-.45.1,0,.64a1.18,1.18,0,0,1,.47.1,4.65,4.65,0,0,1-.93.34c.6.94.43,1.1.54,2.14a.47.47,0,0,0-.39-.16l.29.21a2.1,2.1,0,0,1-.43.61l.48.06c-.12.18-.37.5-.63.47,0,.11,0,.68.22.52l-.24.34-.39-.36c-.08.32-.4.56-.44.87a.51.51,0,0,0,.39-.29c.06,0,.07.22.07.23,0,.23-.48.68-.6.92l.24-.18.42,0a2.91,2.91,0,0,0-.23.62l-.4-.26c.08.31,1,.81.31,1.12l-.26-.46-.19.31.2.22-.05.43-.29-.27.19.4-.45.1.29.22,0,.33a2,2,0,0,0-1,1.46,1,1,0,0,1,.39-.29c.3.42-.16.63-.23,1l-.15-.27-.22.29-.41-.26,0,.45.48.25c0,.37-.6.4-.42.85a.68.68,0,0,1-.33.08.94.94,0,0,0-.52-.24l.2.32c-.24.43-.29,1-.71,1.33l-.1-.45-.46,0c.74.7.15.82-.17,1.33a1,1,0,0,0-.41-.25l-.18.45.38-.2.1.33-.46.1a.91.91,0,0,1-.1.66,1.06,1.06,0,0,0-.36-.64l-.07.48-.31-.16.19.21c-.2.2-.16.56-.42.8l.34-.18.16.17.64-.18-.67-.06.23-.44a.31.31,0,0,1,.25.26l.34,0c.17-.41.78-.56,1-1l.3.27-.19-.39a1.3,1.3,0,0,1,1,0l-.18-.24.17-.15-.2-.32c.08-.33.52-.43.81-.39a.81.81,0,0,1,.2-.67,1.57,1.57,0,0,0,.25.65l.06-.68.39.16a3.25,3.25,0,0,1,.35-.66,1.14,1.14,0,0,1-.67-.12c.42-.21,1-.27,1.16-.81l.3.17a.58.58,0,0,1,.27-.41c-.2-.22-.45-.6-.28-.91l.47.43.53,0a1.55,1.55,0,0,1-.07-.85l.3.17a1.13,1.13,0,0,1,.44-.74.69.69,0,0,1,0-1l.15.18.45-.17-.49-.07A5.15,5.15,0,0,1,344.21,72l-.21-.21.17-.15-.2-.32L344,71l.14.18.45,0a.66.66,0,0,0,.16-.46l-.28.29a4.18,4.18,0,0,1-.39-.58l.46-.1a1,1,0,0,0-.22-.51c.06-.2.38-.85.66-.84.1,0,.22,0,.17.17l.34-.36-.23.18c-.58-.21-.56-.51-.43-1.12a.31.31,0,0,1,.25.26l.35,0,0-.45-.37,0a1,1,0,0,1,.34-.47l-.2-.22c.39.2.11-1.22.09-1.44s-.6-.33.36-1.54l-.39.19c-.14-.33-.21-.68.15-.89l-.3-.3a2.7,2.7,0,0,0,.42-.81L345,62l0-.52.46-.26-.67-.05L345,61l-.2-.31a.81.81,0,0,1,.44-.38.86.86,0,0,1-.35-.88l-.38-.05a1.13,1.13,0,0,1,.35-.37l-.23-.43-.22.2-.42,0,.44-.6-.48-.05c.2-.19.16-.56.42-.8l-.67,0,.16-.25-.2-.23.35-.4-.39-.07.17-.15c0-.42-.47-.58-.07-1.09l-.24.18-.43-.05.27-.31c-.5,0-.77-.19-.33-.63-.24,0-.44-.19-.66-.26a.48.48,0,0,0,.29.39,1.2,1.2,0,0,0-.6.29s0,0,0-.08v-.11c0-.1,0-.23.16-.21l0-.64-.47-.05a.32.32,0,0,1,.26-.25l0-.34c-.08-.05-.32-.2-.3-.34a1.09,1.09,0,0,0,.24-.52l-.32.19a1.32,1.32,0,0,0-.63-.13l0-.47-.66,0a.5.5,0,0,0,.25-.42l-.31.3-.35-.34c.33.17.15-.65.14-.78l-.22.2c-.39-.19-.42-.7-.87-.87l.17-.14,0-.45c-.25.29-.69.37-.67-.15l-.4,0-.11-.47-.27.21,0-.58c-.22.2-.82.66-1.1.31l.46-.1a1.92,1.92,0,0,1,.15-.64l-.36,0c.2.19,0,.39-.21.47l-.11-.46c-.11,0-.54,0-.4.21-.12-.14-.36-.42-.3-.63l-.22.29-.24,0c0,.08-.08-.1-.08-.14a.35.35,0,0,1,.15-.33,1.14,1.14,0,0,1-.66-.09.57.57,0,0,0,.45-.36l-.45,0c0,.44-.66.33-.69-.07,0-.12.07-.2.18-.14l-.38-.42,0,.67c-.41-.08-.54-.65-.49-1a.57.57,0,0,1-.82,0l-.06.67c-.25-.07-.73-.53-.27-.64-.42-.06-1,.28-1.08-.43l.16-.18a1.28,1.28,0,0,1-.79.26c.46.85-.25.45-.48.15a1.53,1.53,0,0,0,.43-.62l-.45,0a.79.79,0,0,1-.24.48l-.42-.05.27-.14,0-.45-.26,0,0,.39c-.57.41-.66-.08-.9-.37l.16-.17c-.29.1-.28.48-.54.7a1.17,1.17,0,0,0-.34-.64c-.53.48-.66,0-1,.07s-.57.89-1.25.09a.41.41,0,0,1-.23.4l-.12-.55-.36,0c.12.51-.27.52-.49.88a4.15,4.15,0,0,1-.63-.31l.18-.15-.17-.35a5.32,5.32,0,0,1-.24.88l-.52,0a1.81,1.81,0,0,0-.27-.66c-.08.25-.16.57-.41.7l-.11-.46c-.38.16-1.13,0-1.15.55a2.66,2.66,0,0,1-.36-.45c-.83-.07-.77.73-1.17,1.22l.07-.66a1.85,1.85,0,0,1-.8.44l.2.31-.06.34-.14-.18-.45,0-.05.47-.3-.27.18.32c-.15.23-.55.55-.79.24l.37.46a2,2,0,0,1-.58.37,7.68,7.68,0,0,1-.47-.63c0,.56.64,1.79-.72,2.06l.2.23c.05.81-1.08.2-1.07.94a.51.51,0,0,0,.39-.3c.06,0,.07.22.07.23A2,2,0,0,1,314,53c0,.11,0,.49.13.56l-.76,0c.26.29.5.6.72.92l-.45.1c0,.29.24.5.32.76l-.46.11c0,.38-.36,1,.07,1.26l-.46.1a1.83,1.83,0,0,1-.16.63l.49.07A.31.31,0,0,1,313.21,57.74Z" transform="translate(0 0)"/><path class="cls-4" d="M345.12,99.57a1.09,1.09,0,0,0,.4-.33C345.28,99.22,345.17,99.44,345.12,99.57Z" transform="translate(0 0)"/><path class="cls-4" d="M340.18,96.41a.47.47,0,0,0,.46-.16A.47.47,0,0,0,340.18,96.41Z" transform="translate(0 0)"/><path class="cls-4" d="M336.8,97.11a4.22,4.22,0,0,0,.38.2C337.16,97.21,337,97.09,336.8,97.11Z" transform="translate(0 0)"/><path class="cls-4" d="M342.46,96l.9-.06-.09-.11C343.16,95.86,342.78,96,342.46,96Z" transform="translate(0 0)"/><path class="cls-4" d="M358.13,90.1s.21.11.38.2C358.49,90.2,358.37,90.08,358.13,90.1Z" transform="translate(0 0)"/><path class="cls-4" d="M346.41,94h0Z" transform="translate(0 0)"/><path class="cls-4" d="M313,92c0-.09,0-.17.18-.21l-.77.05c-.26-.38-1-.86-.36-1.29-.3.11-.39.45-.56.68a1.8,1.8,0,0,0-1-.67l.16-.4-.39,0a2.75,2.75,0,0,0-.63-1,.59.59,0,0,0-.2-.09l.27-.38a3.61,3.61,0,0,1-1.16-.21l.17-.24-.18-.64-.07.68-.16-.37-.4,0-.11-.46-.47-.05.27-.31-.47,0-.06-.85v-.1l-.15.12-.24.19a1.35,1.35,0,0,1-.08-.16l-4,.28a2.33,2.33,0,0,0,.38.4l-.37.18c.29.35.84.47.65,1l.39-.29c0,.14.12.47-.09.51a2.32,2.32,0,0,0,.7.59l-.24.48.38-.3.07.3,0,.15.46,0a2.6,2.6,0,0,0-.39.59.8.8,0,0,0,.47-.47l.24,0c0,.09.13.42-.09.32.18.12,1.12.82.55,1l.3,0c.32.45.71.86,1.06,1.29Zm-3.49-2.16a.48.48,0,0,1-.16-.46A.47.47,0,0,1,309.48,89.83Z" transform="translate(0 0)"/><polygon class="cls-4" points="358.05 83.12 358.05 83.13 358.05 83.12 358.05 83.12"/><path class="cls-4" d="M363.25,73.26l-.3,0,.38.22A.35.35,0,0,0,363.25,73.26Z" transform="translate(0 0)"/><path class="cls-4" d="M362.51,73.31c-.05.09-.12.19-.18.28l-.28-.25,0,0v0l.17.31a2.41,2.41,0,0,0-.13.63l-.48.18.48,0c-.31.21-.32.64-.6.87l.21.22,0,.34c-.24.11-.56.29-.62.57l.23-.28.23.05,0,.53c-.21.16-.36-.09-.67-.06l.2.23a2,2,0,0,1-.39,1.26c.2-.18.42,0,.49.21a3.81,3.81,0,0,1-.84.14l0,.66-.26-.27-.5.55c.17.19.36.6.11.8l-.34-.45a20,20,0,0,1-.93,2l.38.05a2.2,2.2,0,0,1-.38.75h0a2.56,2.56,0,0,1-.37.39.47.47,0,0,1,.16.45.47.47,0,0,1-.16-.45,2.22,2.22,0,0,1-1.12.56l0,.57-.3-.16c.31.28.16.77.27,1.13l-.67,0a.75.75,0,0,1-.06.68h0a.53.53,0,0,1-.53.21l-.06.48-.3-.27a4.77,4.77,0,0,1,0,1l-.39-.26-.19.31.2.28-.65.13-.05.47-.4-.16,0,.56-.31-.36s-.31,1.24-.49.7l-.25.22-.53.47.46,0,.06-.27.33.05c-.22.67-1.16.63-1.68,1.67l-.39-.26.18.31a3.43,3.43,0,0,0-.69.67l-.16-.26-.46,0a2.1,2.1,0,0,0,.5.35l-.53.3-.17-.37c-.39.34-.73.74-1.08,1.12-.9.06-.57-.42-1,.92-.19-.19-.44-.32-.62-.53l0,.29a.56.56,0,0,0-.46.32,1.27,1.27,0,0,0,.6-.24.3.3,0,0,0,.31.18l0,.45c-.22,0-.24-.16-.47-.14s-.22.21-.45.21l0-.44c-.2.32-.33.78-.56,1l-.1-.46-.54,0a2,2,0,0,1-.33.68l-.31-.16,0,.29-.15.08-.34-.17-.6.64-.08.08-.06-.07-.9.06a1.67,1.67,0,0,1-.31,0h0c-.09,0-.16,0-.17-.09l0,.1,0,.27-.15-.17c-.49.07-.9.71-1.41.75l-.18-.17c-.2.13-1.22.73-1.32.28a2.83,2.83,0,0,0-.45.69l-.25-.17-.13.2-.63-.62c0,.22-.49.93-.73.91-.1,0-.22,0-.2-.17l-.13.2-.28-.36a1.45,1.45,0,0,1-1.48.1l0,.31c-.25.1-.72.23-.9-.06l-.22.2-.39-.16-.12.49a4.35,4.35,0,0,0-.57-.92l-.08.49-.14-.17-.44,0c-.1.92-1.24-.15-1.24.46l-.1-.33c.14-.17.36-.12.45-.35l-.46,0-.3.48-.1-.45c-.23,0-.39.32-.48.49-.18-.17-.45-.23-.61-.43a3.48,3.48,0,0,1-.4,1c-.1-.15-.46-.77-.11-.82-.23-.34-.79-.19-1.1,0a1.47,1.47,0,0,1-.49-.62l-.34,0-.33.49-.36-.44-.45,0-.12.28-.11-.46c-.4,0-.71.54-.93,0l0-.11-.13.12-.09.08-.42,0h0l.25-.41c-.2,0-.35.24-.44.42l0,.08-.19-.06h0a3.12,3.12,0,0,0-.44-.07l0-.48c-.17,0-1,0-.95.25l-.08-.19.14-.47-.47-.05.26-.31a3,3,0,0,0-.84.71l-.07-.23.25-.43-.87.06a3.91,3.91,0,0,1-.33-.84l-.22.19-.41-.15.2.28-.33.1-.25-.36-.06.38c-.38-.21-.46-.67-.71-1-.29.55-.66-.34-.84.25l-.12-.46c-.43.22-.71-.22-.88-.55l.44-.45a8.87,8.87,0,0,1-.92.24l-.11.47-.12-.65c-.14,0-.62,0-.57.23-.45-.5-.12-.59-.16-1.12l-.23.29c-.56,0-.58-.35-.17-.63l-.4.19-.1-.46-.22.29A.81.81,0,0,1,313,92l-5.91.41a7.73,7.73,0,0,1,.48.64l-.17.16.22-.19a5.39,5.39,0,0,1,1.16,1l-.46.27c.43,0,.81-.24,1.24-.26a4.45,4.45,0,0,0,.64,1l.57,0,.13.65.56,0a3.64,3.64,0,0,1-.34.59,7.34,7.34,0,0,1,1.33,0l-.25.41.32-.3.24,0c.15.17.38.21.57.32l-.17.15,0,.53a1.67,1.67,0,0,1,.85-.06l-.17.3a4.59,4.59,0,0,0,.79.37h0c.18.06.34.07.38,0h0a.21.21,0,0,0,0-.12l.09.12h0c.2.28.35.61.57.89a1.62,1.62,0,0,0,.54-.42c.09.28.1.63.34.83.41-.42.77-.12,1.13.17l-.15.41c.14-.15.61-.36.68,0l.55-.51.07.23-.26.42c.94.42.81-.3,1.34,0l-.17.15c0,.62,1,.29,1.35.43l0,.06-.21.35c.17,0,.32-.2.41-.37h0l.06-.13a.68.68,0,0,0,.15.11h0a1.59,1.59,0,0,1,.46.32,2.15,2.15,0,0,1-.13-.34l-.25,0,.25,0c-.06-.26.1-.2.3,0a2.2,2.2,0,0,1,.52.69l0-.67c.21.08.59.55.19.64l.57,0-.07.47.23-.19.16.18c.33-.16.53-.5.83-.71a.49.49,0,0,1-.17.7l0,.45a6.06,6.06,0,0,1,1-.55l.12.46c.15-.25.47-.31.66-.52l.42,0-.45.49.48.28-.29-.29c.21-.16.37-.11.52-.38a1.84,1.84,0,0,1,.63.31l-.26.3.33-.19a3.79,3.79,0,0,0,.91.12l-.06.48c.37-.25.88-.34,1.14-.74l.33.06-.18.14.19.44c-.07-1,.55-.37.91-.07.19-.11.43-.27.47-.51.85.91,1.62-.28,1.79.34l.34-.22-.21-.39c.35-.24,1,.06,1.35.11a1.55,1.55,0,0,1-.35.55,1.59,1.59,0,0,0,.68-.64l.34.44.06-.48h.24c.44,1,.67.14,1.14-.27l.12.65.45,0-.29-.22.33-.44.24,0,.12.47c.29-.14.45-.46.64-.7.19.18.47.17.67.33l.21-.2.41.16,0-.31a2,2,0,0,1,.59-.4,1.63,1.63,0,0,0,.27.65c0-.28.29-.43.35-.7l.31.27,0-.4c.1,0,.42-.14.34.09.2-.18.49-.22.67-.43l.16.36.29-.2.36.45c.08-.45,1.06-1.79,1.46-1.06l0-.66.42.05-.26.4a1.47,1.47,0,0,0,.57-.56h0l.11-.13.53,0,.07.12.19.34a1,1,0,0,1,.12-.36h0a5.81,5.81,0,0,0,.39-.63l.33,0,.27.46a4.2,4.2,0,0,1,.23-.68l.39.16a2.56,2.56,0,0,1,.24-.88l.26.28c.11-.15.74-.9.81-.35l.23-.2.25.17a1.89,1.89,0,0,0,.85-.72l.3.27c-.43-.91.39-1.44,1.07-1l0-.26,0-.41.15.27.45,0,.24-.49.38.17c.13-.44.31-1,.83-1.12l.17.18-.2-.23.24-.43.39.17.19-.21-.19-.22,0-.42a3.54,3.54,0,0,0,.6.43c-.05-1,1.1-.8,1.13-1.6l.32.36,0-.59a2.32,2.32,0,0,0,.69-1l.41,0c-.27,0-.08.29,0,.41,0-.66.63-1.09.85-1.68l.15.27.63,0-.16-.43-.05-.14.46-.11c0-.21-.56-1-.09-.84l.41.16a1.05,1.05,0,0,1,.4-.69,2.3,2.3,0,0,1-.07.66c.27-.25.49-.65.1-.92l.5-.45.34.15c0-.09,0-.64-.21-.4a1.39,1.39,0,0,1,.62-.5v-.13l0-.67c-.57.11-.13-.77.36,0l-.39-.51c.15-.47.32-.6.82-.49a1.12,1.12,0,0,1-.25-1.36h0a2.1,2.1,0,0,0,.1-.78l-.48-.11a1.2,1.2,0,0,0,.64-.33l-.42-.49.36-.16-.2-.31a3.11,3.11,0,0,0,.72-2l-.21-.22.18-.2-.21-.22.16-.17-.2-.22.05-.43.39.26a2,2,0,0,1,.17-.64l-.49-.07.45-.46-.2-.21a1.76,1.76,0,0,1,.33-.66l-.23-.42c-.36.51-.82.24,0-.4l.16.17-.19-.23.16-.39-.38-.06.21-.41Zm-54.82,19.5a1.74,1.74,0,0,1-.39-.42l.36,0Zm1.07,1,0-.37a1.8,1.8,0,0,0,.65.18Zm19,8.16a.48.48,0,0,1,.46-.16A.48.48,0,0,1,327.8,101.94Zm8.35-.08a.48.48,0,0,1-.17-.46A.48.48,0,0,1,336.15,101.86Zm-2.58-3.62a.47.47,0,0,1,.17.45A.47.47,0,0,1,333.57,98.24Zm-1.37-.07a.48.48,0,0,1-.46.16A.48.48,0,0,1,332.2,98.17Zm-4.66.13a.48.48,0,0,1-.46.16A.48.48,0,0,1,327.54,98.3Zm-.73-.62,0,.64c-.18-.2-.28-.47-.4-.61Zm-7.19-2,0,.45a2,2,0,0,1-.48-.42ZM316.1,98.4l-.44,0,0-.26.44,0Zm33.66-1.67,0-.45.64,0C350.16,96.41,349.9,96.5,349.76,96.72Zm8-7.42-.45,0,0-.26.45,0Zm1.42-8.73.45,0,0,.26-.45,0Zm.21.92a.47.47,0,0,1-.16-.46A.47.47,0,0,1,359.4,81.49Zm2.56-2a.48.48,0,0,1,.46-.16A.48.48,0,0,1,362,79.48Z" transform="translate(0 0)"/><path class="cls-4" d="M306.6,86.35c-.21-.57-.2-1.46-1-1.46l.28-.15a1.53,1.53,0,0,1-.54-.79L305,84a1.3,1.3,0,0,0-.49-.52l.17-.15,0-.44-.49-.29.45-.37a4,4,0,0,1-.86,0l.17-.3c-.19.19-.41,0-.48-.21l.46-.11,0-.63-.45,0-.12.28c-.26,0,.08-.67.07-.72,0-.44-.64-.29-.89-.5l.65-.12,0-.43c-.19-.17-.48-.16-.68-.31l.46-.09,0-.45-.76.05a4.15,4.15,0,0,1,.06-.66l-.23.19-.42,0a3.05,3.05,0,0,0,.22-.59h0v0l0,0,.35.24.11-.27.08-.19-.23.18a.73.73,0,0,1-.49-.8l-.28.2-.1-.32.35-.35c-.52.22-.44-.36-.21-.22-.25-.36-.86-.87-.28-1.26l-.32.18-.35-.36c0-.34.34-.58.32-.92s-.23-.7-.28-1.06a1,1,0,0,1-.66-.11l.45-.09-.3-.32.28-.17c-.71-.42-.32-.45-.35-.94l-.2-.18a2.75,2.75,0,0,1,.44-.53c-1,.07-.35-.57-.07-.94l-.47,0,.17-.26a1,1,0,0,1-.23-.51l-2.44.17,2.44-.17a.51.51,0,0,1,.05-.31l.41.15,0-.45c-.24,0-.44-.17-.67-.23.12-.75.21-.76-.1-1.51l.37-.17a1.93,1.93,0,0,0-.43-.68l0-.35.36-.1c-.19-.21-.33-.61,0-.81-.63.48-.37-.19-.22-.49l-.21-.32.61-.82-.48-.06.15-.44.49,0c-.23-.16-.26-.58-.63-.41l-.07-.19c.17-.28.44-.69.8-.74a1.37,1.37,0,0,0-.7-.55l.46-.09a3.38,3.38,0,0,1,.06-.64l-3.2.22,0,.46-.41-.25a1.33,1.33,0,0,0,.5.56l-.67-.06c.18.2.22.5.43.68l-.37.16c0,.09,0,.68.22.49-.17.18-.21.43-.39.6a1.22,1.22,0,0,0,.54-.47c.13.35,0,.52-.28.71l.2.21a5.45,5.45,0,0,1-.79.93l.36,0c-.14-.68.84.13,0,.22l.29.21a1.92,1.92,0,0,1-.42.67l0,.44c.68,0,.68.43.23.48l0,.35.28.06,0,.35-.46.11.2.23-.18.15c0,.1,0,.68.23.51l-.35.41.36,0c-.14-.68.84.13,0,.22l.29.22a1,1,0,0,1-.2.54h0c-.1.19-.12.36.28.6l0,.34-.47.12c.55.86.68.59.31,1.64l.48.06a.85.85,0,0,1-.43.65l.3.21-.26.4.33-.19.33,0-.35.36,0,.44.38.05,0,.35-.36.1c0,.26.28,1.6.11,1.73l.42.47-.36.33c.52,0,.51-.41,1.05,0L298,77l-.31-.16a5.49,5.49,0,0,1,.44,1h0c.05.22,0,.37-.16.3.68.71.23.54.29,1.27l.23-.29.44.33-.06.33-.4-.14.51.39-.17.39.67.06-.27.15.3.32-.27.15a.89.89,0,0,1-.15.69l.23.42.38-.3.12.65c.14,0,.62,0,.58-.23,0,.14.13.47-.09.51a.83.83,0,0,1,.07,1l.59,0c.12.33.55.82.17,1.14.52-.23.43.35.2.22a3.16,3.16,0,0,0,.7.47l-.17.15,0,.45a1,1,0,0,1,.72.46Zm-7-4.87a.47.47,0,0,1-.16-.46A.47.47,0,0,1,299.65,81.48Z" transform="translate(0 0)"/><path class="cls-4" d="M301.56,86.55a.46.46,0,0,0,.46-.16A.47.47,0,0,0,301.56,86.55Z" transform="translate(0 0)"/><path class="cls-4" d="M300.74,74.56c.23-.42.08-.48,0-.46Z" transform="translate(0 0)"/><path class="cls-4" d="M363,73.28l.3,0c-.15-.16-.39-.11,0-.86a.57.57,0,0,1-.5-.17l-.42.23,0,.45.28.05a1.21,1.21,0,0,1-.14.35l.4,0v0Zm-.15-.39a.47.47,0,0,1-.16-.46A.47.47,0,0,1,362.8,72.89Z" transform="translate(0 0)"/><path class="cls-4" d="M362,72.5c.05.14-.15.35-.24.64.14,0,.25-.09.45-.23C362.16,72.9,362.09,72.46,362,72.5Z" transform="translate(0 0)"/><path class="cls-4" d="M302.48,44.28c.17,0,.18.18.31.16s-.11-.15-.2-.23a1.46,1.46,0,0,1,.12-.37c-.21.17-.58.19-1,.45a5.59,5.59,0,0,1,.67.37C302.43,44.52,302.4,44.37,302.48,44.28Z" transform="translate(0 0)"/><path class="cls-4" d="M298.79,49.8a.47.47,0,0,0-.46.16A.47.47,0,0,0,298.79,49.8Z" transform="translate(0 0)"/><path class="cls-4" d="M299.39,58.36a.59.59,0,0,1,.65.17c0-.32,0-.92.42-1l0-.35-.47,0a.82.82,0,0,0-.07-1l.47-.12-.31-.48.24-.52c-.19.19-.41,0-.49-.22l.46-.1c0-.23.17-.42.15-.65l-.45,0-.1.47-.12-.59a1.67,1.67,0,0,0,.65-.27l-.49-.08,0-.33.14-.08.33.15.18-.22c-.47-.5-.57-.71-.14-1.29l.25.45,0-.46c-.35.12-.09-.55,0-.66l-.37,0c.22-.45.64-.81.76-1.31-.38.51-.83.22,0-.41l.17.17-.2-.23.16-.24-.2-.23.17-.15-.19-.22c.07-.58.94-1.7.32-2.18.23-.28.45-.36.32-.77l.47,0a1.48,1.48,0,0,0-.22-.57l.16-.25-.23.2-.41-.16,0,.6-.47.11.29.22a1.94,1.94,0,0,1-.59,1.09l.38,0a9.35,9.35,0,0,0-.75.68L300,47l-.19.31.2.23-.17.15.22.57-.46.11.3.38a1.58,1.58,0,0,1-.67,0l.13-.41c-.12.19-.42.34-.4.6s.31.28.32.5-.34.36-.24.66a2.45,2.45,0,0,0-.84.29.58.58,0,0,1,.66.84l-.17-.36-.45,0,.19.21a3.62,3.62,0,0,1-.62.63l.49.07-.17.14.21.32-.18.15c0,.13,0,.65.23.56l-.65.13.19.21a.86.86,0,0,1-.62.49c0,.23-.17.42-.14.65l.22-.29.23.05,0,.34c-.24.11-.56.28-.62.57l.67,0a.39.39,0,0,0-.25.55l-.65.12-.18.22a4.26,4.26,0,0,0,.51.55l-.65.11c.26.23,0,1,.24.87l-.62.63.49.12-.45.38c.22,0,.66-.21.67.16l-.39.5-.42-.25,0,.46.38,0v0l3.2-.22A1.31,1.31,0,0,0,299.39,58.36Zm.16-.72c.22-.13.31-.19.26-.4.13,0,.14.81.14.81l-.37,0Zm-2.42-.06-.45,0a2.22,2.22,0,0,1,.4-.67Zm-.35-1.32a.48.48,0,0,1,.46-.16A.47.47,0,0,1,296.77,56.26Zm1.5-4.48a.48.48,0,0,1,.46-.16A.47.47,0,0,1,298.27,51.78Zm1.16,7.46a.47.47,0,0,1-.16-.46A.47.47,0,0,1,299.42,59.24Z" transform="translate(0 0)"/><path class="cls-6" d="M331.48,107l-.45,0,0,.2.21.05A2,2,0,0,0,331.48,107Z" transform="translate(0 0)"/><path class="cls-6" d="M347.38,104.14a5,5,0,0,0-1.2.53l1.31-.09-.37,0Z" transform="translate(0 0)"/><path class="cls-6" d="M318.09,104.86a.68.68,0,0,0-.27,0l.14.08A.29.29,0,0,0,318.09,104.86Z" transform="translate(0 0)"/><path class="cls-6" d="M348.3,104.53h.08a.28.28,0,0,0-.08-.08S348.3,104.5,348.3,104.53Z" transform="translate(0 0)"/><path class="cls-6" d="M351.61,102.49c-.18-.18-.45-.23-.61-.43l.18.34a.65.65,0,0,1-.36.16,1,1,0,0,1-.4.68c-.16,0,0-.54.09-.65l-.36,0-.18.19c0,.2.25.39.41.5l-.29.44c-.74-1.43-1.26-.18-1.71.5l-.15-.17-.44,0-.24.48h-.06l-1.31.09a.85.85,0,0,0-.33.42,1.1,1.1,0,0,1-.45-.35c-.62.2-1,.59-1.73.51l0,.47-.25-.17L343,106a.69.69,0,0,1-.16-.36l-.23.2a.52.52,0,0,0-.41-.15l0,.58s0,.06-.19.08a.22.22,0,0,1-.22-.26l-.64,0,.21.39-.53.3a.74.74,0,0,1-.17-.37,2.11,2.11,0,0,0-.64-.24l.2.33-.23.33c-.32-.2-.75-.14-1.08-.3l0,.36.28.12c-.45.19-1.29.21-1.39-.41a8.76,8.76,0,0,0-.66.62.52.52,0,0,0-.41-.15l0,.47-.82-.42c-.15,0-.41.5-.65.06l0,.66c-.45-.24-1-.34-1.37-.76l-.37.41a.4.4,0,0,1-.27-.35c-.29.11-.25.46-.39.68l-.47-.44-.21.21-.34,0-.1-.2.18-.17-.21.19a.72.72,0,0,0-.4-.15,1.6,1.6,0,0,1-.19.19l0-.24a.42.42,0,0,1-.18-.12c.34.57-.82.24-1.4.48a2.7,2.7,0,0,0-.41-.35l-.05.38c-.37-.25-1-.24-1.07-.8l.18-.17a.88.88,0,0,1-.43.22l.29.22c.06.82-.55.25-1.05.3l-.13-.65c-.33,0-.72-.18-1,0l.39.08-.16.31c.2-.19.4,0,.49.2a2.07,2.07,0,0,1-1,.06l.27-.4c-.14,0-.63,0-.58.22-.16-.16,0-.66,0-.85-.35.24-.69.47-1,.73-.06,0-.07-.22-.07-.23a.45.45,0,0,1,.15-.33c-.19.12-.53.17-.4-.07-.19.11-.43.29-.48.51a2,2,0,0,1-.36-.47l.16-.18c-.36.34-1.46.57-1.48.29a.4.4,0,0,1,.05-.2h0a.43.43,0,0,0,.07-.29.89.89,0,0,1-.36.3h0a2.34,2.34,0,0,0-.35.22,1.49,1.49,0,0,1-.13-.19h0c-.1-.17-.21-.4-.14-.55l-.35.3a3,3,0,0,0-1.2-.19l.18-.14-.18-.64-.08.39-.34,0-.1-.2.18-.17-.21.19c-.25-.18-.52-.33-.79-.48a.58.58,0,0,1-.33.05.34.34,0,0,1,.19-.14,6.1,6.1,0,0,1-.94-.64l-.21.21-.15-.18c-.12,0-.64,0-.51.22l-.43,0,.27-.15,0-.36c-.15,0-.82,0-.75.24-.11-.29-.33-.52-.44-.82l-.22.2a.51.51,0,0,0-.41-.15l0,.37c-.27-.17-.56-.56-.2-.81l-.23.18a5.08,5.08,0,0,1-.89-.31l-.06.38c-.18-.14-.48-.5-.32-.72l-.1.09c-.14-.1-.29-.14-.27-.34l-.22.19a.73.73,0,0,1-.37-.44l-.59,0s-.06,0-.08-.19.17-.29.14-.47a1,1,0,0,1-.39.3l-.1-.46-.21.19a1,1,0,0,0-.76-.13.5.5,0,0,1-.07-.1l-4.78.33a1.27,1.27,0,0,1,.39.73l.47,0,.06.85.23-.2a2.51,2.51,0,0,0,.62.21c-.16.26-.51.32-.62.62a5.91,5.91,0,0,1,1.62,0l-.27.4c.14,0,.63,0,.58-.22l.13.65a3.51,3.51,0,0,1,.85,0l-.18.15.17.35a.42.42,0,0,1,.23-.4l.13.64.37,0-.36.33.35,0a1,1,0,0,1,.42-.39s.06.09.07.19-.17.29-.14.47l.22-.29.34,0,.32.46c.12,0,.63,0,.5-.23.33,0,.43.56.39.82.7-.35.92-.09,1.26.39l6.7-.47-6.7.47.12.18.22-.2c.44,0,1.16.45,1.16,1l.57,0a.85.85,0,0,1-.05.49c.34-.28.71-.38.86.12l.35,0c0-.28.26-.42.32-.68l.35.33a.73.73,0,0,1-.37.16,1.72,1.72,0,0,0,.4.61l0-.4c-.07,0,.09-.08.16-.08a.87.87,0,0,1,.55.22l-.36.4a3.4,3.4,0,0,1,.89.15l.48-.41.35.43-.36.41a12.89,12.89,0,0,1,1.51-.21l-.06.12-.1.19c.45,0,.41-.39.95-.07a.71.71,0,0,1-.07.47l.24-.19.15.17c.29,0,.38-.5.94,0a.51.51,0,0,0-.25.42l.45,0a1.12,1.12,0,0,1,.12-.47l.1.45.45,0,.05-.47c.28,0,.54.6.62.82l.07-.39.25,0,.1.36c.19,0,.27-.2.45-.21l.52.43.29-.29a.64.64,0,0,0,.36.45l0-.4c.64-.44.71.16.93.53l.22-.2.24.16.23-.2c0,.34,1.64.22,1.57-.11a3.17,3.17,0,0,0,.77.8l-.18-.23a1.94,1.94,0,0,1,.39-.45l.1.46c.6,0,.75.14,1.32.1l0-.31s0-.06.19-.08.46.17.69.22l-.27.3a1.91,1.91,0,0,0,.68-.6l.25.16.21-.19c.21.2.57.15.8.32l.06-.38a.81.81,0,0,1,.49.53c.46-.32.83-1.06,1.31-.28.34,0,1.07-.36,1.29-.1-.22-.5.36-.44.2-.2l.23-.2.25.16.23-.2.16.17a1.61,1.61,0,0,0,.56-.51s.15.46-.09.5l.21.34.64,0a1.16,1.16,0,0,1,.24-.58l.33,0a1.51,1.51,0,0,1-.06.57c.42-.17,1-.89,1.45-.47l.06-.48.49.44c.39-.31.64-.79,1.23-.57l0-.67.15.27a.91.91,0,0,1,.69.15c.32-.43,2,.35,1.61-.89a.85.85,0,0,1,.47.07l-.19-.23.24-.43.15.17c.19,0,.35-.22.43-.37l-.38.2-.12-.48,1.51-.1a.73.73,0,0,1,.08-.2h0c.13-.21.32-.37.36-.54l-.21-.25.64-.12c.28-.44,0-1.19.79-1.21l0-.58a.49.49,0,0,1,.73.17.65.65,0,0,1,.4-.33l-.29-.28.13-.08c.4-.25.75-.54,1.17-.75l.18.16c-.43-.5-.19-1.39.57-1.16l0-.36Zm-3.15,2.29a.69.69,0,0,0-.09-.26h-.08s0-.06,0-.08l.08.08A.7.7,0,0,1,348.46,104.79Z" transform="translate(0 0)"/><path class="cls-6" d="M303,100.89l-.15.14A.2.2,0,0,0,303,100.89Z" transform="translate(0 0)"/><path class="cls-6" d="M307.31,99.65l.18-.25A.46.46,0,0,0,307.31,99.65Z" transform="translate(0 0)"/><path class="cls-6" d="M308.94,100.43l-.13.39-.26-.55-.06.38A1.24,1.24,0,0,1,308,100l-.22.29-.34,0c0,.08-.08-.1-.08-.14s.19-.07.17-.25-.27-.13-.24-.3l0,0c-.42-.15-.44-.64-.18-.49a1.36,1.36,0,0,0-.7-.54,1.5,1.5,0,0,0,.65-.25c-.31,0-.83.3-.89-.25l-.31.29a1.87,1.87,0,0,1-.36-.47l.17-.17-.38.2-.11-.46-.66,0-.07-1.05a.84.84,0,0,1-.84.18l.18-.15,0-.43a2.09,2.09,0,0,1-.45-.66s-.37.38-.46.32a.62.62,0,0,1-.34,0l.21-.24.14-.16-.38-.07a.52.52,0,0,0,.15-.41l-.22.29-.34,0c-.59-.48-.11-.65-.15-.93l-.45,0a1.2,1.2,0,0,1-.1.47,7.23,7.23,0,0,1-.16-1.12l-.47-.05.27-.15a5.43,5.43,0,0,1,.13-.84,1.35,1.35,0,0,0-.56.69l-.09-.45-.23.2-.43-.22c.18-.18.23-.44.43-.61a.5.5,0,0,1-.52-.37l-.58,0-.11-.46-.22.19-.44-.21a2,2,0,0,0,.6-.82,4.44,4.44,0,0,1-.86,0,1.25,1.25,0,0,1,.44-.59l-.33.18-.34-.06a.47.47,0,0,0,.16-.39l-.47-.05.28-.17c-.23-.14-.34-.42-.52-.62l.17-.16-.28.2a3.31,3.31,0,0,1-.15-.84l-.37,0c.17-.07,0-.73,0-.84a3.75,3.75,0,0,1-.85.07l.05-.46.14.18.45-.19c-.78.05-.6-.45-.24-.49l0-.36a.61.61,0,0,0-.3.4.67.67,0,0,1-.16-.36l-.47-.05a.32.32,0,0,1,.27-.25,1,1,0,0,0-.71-.69c0-.12.06-.19.17-.12-.19-.21-.33-.61,0-.81l-.24.18-.33,0c0-.07-.06-.17-.09-.3l-3.51.24a1.12,1.12,0,0,1-.16.48l.3,0a.72.72,0,0,1-.07.48l.39-.2a.47.47,0,0,1-.17.71,3.3,3.3,0,0,1,.37,1,.72.72,0,0,1,.67.19,1.17,1.17,0,0,0-.64.34l.38.4c-.18-.21,0-.41.21-.49a1,1,0,0,1,.3.55c0,.12-.06.19-.17.13.17.38.57.48.45,1l.4,0c0-.07.08.09.08.15s-.18.17-.17.34.22.41.25.64c.14,0,.62,0,.57-.23a1.28,1.28,0,0,1,0,1l.36,0,0-.36c.36.07.39.48.66.68a2.75,2.75,0,0,0-.21.63c-.1-.07,0-.22-.17-.15l-.1.05-.15.08.31.19.29-.2s.07.09.08.19-.17.29-.14.48c.59-.26.8.56.73,1l.28-.2.14.65a1.19,1.19,0,0,1,1,.2l-.27.17a.86.86,0,0,1,.35.88l.23-.28.43.05a4.51,4.51,0,0,0-.46.46l.18.43.07-.48.42.05-.18.14,0,.45.22-.19.43.05-.27.14.2.16.09.07a.32.32,0,0,1-.26.26,4.9,4.9,0,0,1,.36.81l.19-.49a1.35,1.35,0,0,1,.18.46.84.84,0,0,1,.66.21.53.53,0,0,0-.15.41c.24,0,.44.18.67.22a.49.49,0,0,0-.25.41l.33-.3.24,0c0-.08.08.1.08.14a.35.35,0,0,1-.15.33c.79-.15.66.63.94,1.08l.31-.31.33.06a1.2,1.2,0,0,1-.36.46c.26.36.87,1.13,1.3.53.11.12.36.49.3.7l.06-.05c.51.31,1,.34,1.39.66l4.78-.33C309.14,100.92,309.32,100.65,308.94,100.43Z" transform="translate(0 0)"/><path class="cls-6" d="M290.61,84.19l-.23,0,.22.09S290.61,84.23,290.61,84.19Z" transform="translate(0 0)"/><path class="cls-6" d="M290.73,83.82a.57.57,0,0,1,.09.36l3.51-.24c-.16-.55-.34-1.51-.13-1.68l-.29.29a.5.5,0,0,1,.08-.7,1,1,0,0,0-.51-.49l.28-.16c-.06-.12-.92-.83-.35-.92a1.88,1.88,0,0,1-.44-.79.5.5,0,0,0-.38.3,1.58,1.58,0,0,1,0-.68.48.48,0,0,0,.4.15,2.89,2.89,0,0,0-.53-.85.25.25,0,0,1,.17-.28l-.41-.39.17-.39a1.33,1.33,0,0,1-.48-.13l.46-.1,0-.44-.45,0a1.23,1.23,0,0,1-.1.47c-.1-.38.06-.77-.07-1.16l.57,0,0-.44-.22.29-.35,0-.29-.34a.71.71,0,0,1,.36-.16l-.2-.29a.66.66,0,0,0,.44-.37,3.78,3.78,0,0,1-.68-.23l.17-.14a.58.58,0,0,0-.5-.49c.22-.2.36-.46.63-.61a1.23,1.23,0,0,1-.68-.13l.65-.12c-.35-.73-.7-.42-.08-1.27l-.67-.06.26-.39-.48-.06c.24-.47-.21-1.17.38-1.46-.92.06-.32-.51-.36-1.07l.46-.12c-.22-.64,0-.76-.1-1.29-.49.71-.71-.14-.2-.2l-.29-.22,0-.34a2.38,2.38,0,0,0,.44-.59l-4.23.29c0,.09-.07.19-.11.29l.3-.19s.07.1.08.19-.42.67,0,.53l-.34.51.38.06c-.07.26-.35.49-.33.77s.58.54-.2,1.17l.33-.18.34.06-.18.14.2.32a.69.69,0,0,1-.36.17l-.23.83a1.35,1.35,0,0,1,1,.38l-.46.1c.22.64,0,.76.1,1.29l.22-.29.23.05,0,.35-.46.11.2.23-.17.26c.23.36.13.61.54.86l-.27.15,0,.45.28.06-.26.16,0,.45.39-.2c.28.21-.1.52-.08.72s.19,0,.21.22-.18.17-.17.34.51.48.06.6l.29,0c0-.08.08.1.08.15s-.19.07-.17.25.51.17.05.55l.47.05-.27.15.29.22c-.49.61-.27.82.27,1.13l-.17.15c.25.16.07,1.07.1,1.49.68,0,.24-.08.58-.23l.11.45.28-.29.1.41a.5.5,0,0,1-.7-.07l-.33.38.6,0,.11.47.22-.19.43.05-.28.14a1,1,0,0,1,.3.38,1.25,1.25,0,0,0-.65.34l.18.43.06-.48c.72.5.48.27.21,1.1l.23.09.23,0A1.45,1.45,0,0,1,290.73,83.82Z" transform="translate(0 0)"/><path class="cls-6" d="M290.87,65.91a1.88,1.88,0,0,1,.17-.23c-.14-.11-.74-.74-.26-.81l-.2-.23a1,1,0,0,1,.35-.46l-.18-.43-.07.48-.44-.23a.31.31,0,0,1,.26-.25l-.29-.29a5.07,5.07,0,0,0,.9-.76,1.37,1.37,0,0,1-.48-.13l.46-.1-.3-.32,0-.71a1.44,1.44,0,0,1,.67,0c-.22-.25-.23-.61-.43-.87a.64.64,0,0,1,.36-.17c-.54-.33.36-.69-.24-.84a2.91,2.91,0,0,0,.84-.29l-.68-.06.27-.15-.3-.32,0-.71c-.08,0,.1-.08.14-.08a.37.37,0,0,1,.34.15c-.05-.84-.38-.94.12-2.19l.4.26a1.17,1.17,0,0,0-.5-.69,5.3,5.3,0,0,1,.6-.9l-.38-.06.06-.34.3.17a5.54,5.54,0,0,1,0-1.32.3.3,0,0,1,.25.25l.36,0a.57.57,0,0,0-.4-.29,2.46,2.46,0,0,0,.19-1l.32.36c0-.11,0-.65-.2-.41a3.13,3.13,0,0,1,.64-.44,1.4,1.4,0,0,1-.49-.14.64.64,0,0,0,.45-.35l-.48-.05.34-.35.15.18.44-.17-.48-.06a9,9,0,0,0,1-1.51l-.39.2-.12-.6.46-.11,0-.58.65-.13,0-.45-.13,0-.15,0,.26-.16a.92.92,0,0,1-.3-.38l.46-.1,0-.66a.49.49,0,0,0,.42.24l-.3-.31c.09-.26.46-.17.25-.55.28-.16.66-.16.82-.48-.25.12-.45.38-.47,0a14.32,14.32,0,0,0,1.86-2l-.2-.2c.11-.36.43-.73.29-1.12l.48,0c0-.11,0-.64-.21-.41a.42.42,0,0,1,.08-.16h0c.22-.25.7,0,.72-.48l-.38.21a1.54,1.54,0,0,1,0-.68.31.31,0,0,1,.24.26l.83-.06c0-.11,0-.75-.22-.5a9.12,9.12,0,0,1,.56-1.13l.39.26a7.83,7.83,0,0,1,.48-1.36l.32.35c-.21-.47.29-.73.49-1.08l.16.18a1.93,1.93,0,0,0,.6-.54l-.21-.26a4.06,4.06,0,0,1,1-.16c.05-.3-.09-.5.25-.69A.87.87,0,0,1,303,35c.2-.16.79-.36.61-.7.33-.11.73-.16.92-.49l-.39.19-.1-.4.6-.12.27.45c-.19-.59.31-.5.51-.89a.5.5,0,0,0,.4.15l0-.66.24.17a.86.86,0,0,1,.43-.22l0-.45-.28-.12c.44-.34.84.06,1.14.33l-.29-.33,0-.61.51,0a.7.7,0,0,1-.07.47.93.93,0,0,1,.44-.21.51.51,0,0,0-.3-.38,2,2,0,0,0,.68-.78,4.67,4.67,0,0,0,.48.45,1.69,1.69,0,0,1,.59-.25,1.3,1.3,0,0,1-.25-.94l.85-.06c-.22-.5.35-.43.2-.2l.23-.2.26.17a1.9,1.9,0,0,1,.61-.24l-.3-.32a3.76,3.76,0,0,1,.32-.63l.23,0a.82.82,0,0,1-.06.48,1.64,1.64,0,0,0,.55-.7,1.41,1.41,0,0,0,.26.65l0-.59c-.11-.07.43-.18.34.09.6-.36,1.13-.48.55-1.3l.23-.27.44.23-.26.39c.13-.17.67-.3.49,0l.34-.21-.23-.44-.21.2-.44-.28c.71-.25.57-.08,1.12-.16,0-1.14,1.2-1.66,1.44-1.24a1.3,1.3,0,0,1,.09-.85.62.62,0,0,0,.35.44l0-.39.66-.13,0-.39c0-.05.13-.07.19-.08a.36.36,0,0,1,.29.14.72.72,0,0,1-.12-.47l.46-.1c.22-.93.85-1.18,1.41-1.88l-.46,0c0,.4-.52.74-.85.4a.59.59,0,0,0,.45-.38l-.44,0a.71.71,0,0,1-.46.32l.29.29c0,.06-.47.15-.5-.09l-.36,0c0,.5-.31.53-.64.22l0,.41a.48.48,0,0,1-.72-.15l-.45,0a1.5,1.5,0,0,0,.5.36c-.08,0-1.12.59-1,.14-.33.28-.22.49-.65.52a.87.87,0,0,0-.52-.24c0,.29.44.66.1.93l-.1-.45c-.26,0-.45.28-.5.51a.88.88,0,0,0-.4-.26l0,.47-.25-.17c-.85.81-.67.22-1.08.27,0,.67-.44.62-.67,1.18-.47,0-.42-.38-.17-.64L310,25l0,.65-.15-.27-.22.29-.16-.26-.45,0c.4,1.07-.51.91-1.08.73a.48.48,0,0,0,.29.38,4.16,4.16,0,0,1-.92.33l.29.22-.33.44-.33-.06a.43.43,0,0,0,.14-.4c-.08.15-.62.92-.79.35l0,.3-.46.11,0,.47-.25-.17a1.87,1.87,0,0,1-.61.24c0,.13,0,.65.23.56a4.77,4.77,0,0,1-1.48.67l0,.3-.46.11,0,.47-.25-.18a1.41,1.41,0,0,1-.78.44l0,.66a.5.5,0,0,0-.4-.16l.29.28-.65-.07.19.23,0,.43-.14-.19c-.92.06-.83.37-1.12,1.12A.51.51,0,0,0,300,33l0,.39a1.71,1.71,0,0,0-.66.27,1.45,1.45,0,0,1,.49.14l-.46.11a1,1,0,0,1-.22.66.72.72,0,0,1-.18-.37l-.42.39.4,0c0-.07.08.09.08.16a.88.88,0,0,1-.23.55l-.39-.36a1.25,1.25,0,0,1-.41.69l-.1-.45-.35,0c.56.48-.1.91-.28,1.34l-.15-.26-.45,0a.67.67,0,0,0,.5.29,3.16,3.16,0,0,0-.23.63l-.39-.26.19.33a.93.93,0,0,1-.81.38l.2.33-.24.34-.15-.17-.64.17a1.73,1.73,0,0,1,.7.43A5.87,5.87,0,0,1,295,39l.2.32c-.09.63-.84.27-.8.85a.24.24,0,0,0,.21.24l0,.34c-.23.15-.62.22-.71.51a.5.5,0,0,0-.4-.16,1,1,0,0,1,.22.23h0l.08.14a2.7,2.7,0,0,0-.92.54l.31.31-.27.15,0,.57c-.28.1-.64.12-.84.35l.21.29a.51.51,0,0,1-.53.38l.19.31a18.76,18.76,0,0,0-1,1.9l.48.06-.63.65c-.18,0-.29-.16-.48-.12.26.15.34.5.53.72l-.31.06-.33.06c0,.18.19.26.21.45s-.15.52-.13.79a3.77,3.77,0,0,1-.63.42l.21.27-.65.13a1,1,0,0,1,.3.38l-.46.1.2.23a.53.53,0,0,0-.15.41,1,1,0,0,1,.38-.3s.07.21.08.23c0,.46-.55.61-.63.3a2.81,2.81,0,0,1-.53,2.19l.31,0c0-.07.08.09.08.16,0,.51-.75.44-1,.75a.77.77,0,0,1,.68.21l-.46.25a1.36,1.36,0,0,1,.48.13c-.26.17-.29,0-.52.39l-.3-.27c0,.37-.26.46-.45.73l0,.43.39,0a1.11,1.11,0,0,0,.3.61l-.45.09,0,.64.28.06-.26.16,0,.66-.14-.17-.45,0,.29.22.08,1.19c-.4.28.1.74-.62.61.19.24.38.65.06.85l0,.44.21-.29.45.39-.65.11c0,.13,0,.65.23.57l-.47.13c.3.27.49.59.07.84l0,.44.28.06,0,.25-.27.1.09,1.3.27,0a2.88,2.88,0,0,0-.48.82Z" transform="translate(0 0)"/><path class="cls-4" d="M307.93,135.33a1.4,1.4,0,1,1-.19-2.78l5-.35c1.53-.1,2.21.42,2.34,2.29.41,5.83-1.29,11.75-9.52,12.32-7,.49-11-5.26-11.46-11.54s2.61-12.52,10.19-13c5-.35,8.47,2,8.56,3.29a1.39,1.39,0,0,1-1.33,1.52c-1.5.11-2.91-2.52-7.26-2.22-5.43.38-7.29,5.62-7,10.23s2.82,9.55,8.46,9.16c4.69-.33,6.69-4.49,6.46-7.74l-.1-1.43Z" transform="translate(0 0)"/><path class="cls-4" d="M321.35,142.71l7.2-.5a1.4,1.4,0,1,1,.19,2.78l-8.6.6a1.48,1.48,0,0,1-1.71-1.52L317,123.18a1.47,1.47,0,0,1,1.48-1.74l8.6-.6a1.4,1.4,0,1,1,.2,2.78l-7.2.5.55,7.9,6.56-.46a1.4,1.4,0,1,1,.2,2.78l-6.56.46Z" transform="translate(0 0)"/><path class="cls-4" d="M336.53,143a1.5,1.5,0,1,1-3,.21l-1.48-21.2c-.08-1.19.29-1.79,1.24-1.86s1.31.28,2.21,1.41L349,138.29H349l-1.22-17.5a1.5,1.5,0,1,1,3-.21l1.48,21.2c.08,1.19-.28,1.79-1.24,1.86s-1.32-.28-2.21-1.41l-13.46-16.68h-.07Z" transform="translate(0 0)"/><path class="cls-4" d="M359.23,141.46a1.5,1.5,0,1,1-3,.21l-1.5-21.37a1.5,1.5,0,1,1,3-.21l.62,8.82,9.7-10.19c.51-.54,1-1,1.57-1.06a1.23,1.23,0,0,1,1.38,1.2,1.54,1.54,0,0,1-.52,1.4l-9.29,9.61,11.57,9.69a1.53,1.53,0,0,1,.7,1.18,1.41,1.41,0,0,1-1.37,1.43,1.89,1.89,0,0,1-1.51-.54l-12.05-10.27Z" transform="translate(0 0)"/><path class="cls-4" d="M342.19,25.56a.36.36,0,0,1-.33.39c-.36,0-.51-.39-1.34-.34a1,1,0,0,0-1,1c.1,1.46,3.21.54,3.36,2.78a2.09,2.09,0,0,1-2.1,2.25c-.88.06-1.87-.21-1.9-.67,0-.22.08-.43.32-.44s.71.47,1.55.41A1.31,1.31,0,0,0,342,29.5c-.11-1.57-3.21-.59-3.36-2.76a1.87,1.87,0,0,1,1.84-1.84C341.32,24.84,342.16,25.13,342.19,25.56Z" transform="translate(0 0)"/><path class="cls-4" d="M346.88,25.12a.41.41,0,1,1,.82-.06l.08,1.07.34,0c.27,0,.42.1.43.33s-.12.36-.38.38l-.34,0,.27,3.87a.41.41,0,1,1-.82.06L347,26.9l-.33,0c-.27,0-.42-.1-.44-.33s.12-.36.39-.38l.34,0Z" transform="translate(0 0)"/><path class="cls-4" d="M356.82,30.13a.38.38,0,0,1-.35.43.37.37,0,0,1-.41-.37l0-.35h0a1.61,1.61,0,0,1-1.3.84,2.31,2.31,0,0,1-2.36-2.38,2.31,2.31,0,0,1,2-2.69,1.74,1.74,0,0,1,1.4.57h0l0-.26a.38.38,0,0,1,.35-.43.38.38,0,0,1,.41.37ZM354.66,30c1-.07,1.29-1.08,1.24-1.92s-.48-1.8-1.49-1.73-1.29,1.08-1.23,1.92S353.65,30,354.66,30Z" transform="translate(0 0)"/><path class="cls-4" d="M364.39,29.32h0a1.36,1.36,0,0,1-1.28.77,2.3,2.3,0,0,1-2.29-2.39A2.29,2.29,0,0,1,362.74,25a1.63,1.63,0,0,1,1.37.58h0L364,23.19a.41.41,0,1,1,.82-.06l.45,6.37a.41.41,0,1,1-.82.06Zm-1.54-3.59c-1,.07-1.29,1.08-1.23,1.92s.48,1.8,1.49,1.73,1.3-1.08,1.24-1.92S363.86,25.66,362.85,25.73Z" transform="translate(0 0)"/></svg>