<?xml version="1.0" encoding="UTF-8" standalone="no"?>
<svg xmlns:rdf="http://www.w3.org/1999/02/22-rdf-syntax-ns#" style="enable-background:new 0 0 100 100" xmlns="http://www.w3.org/2000/svg" xml:space="preserve" version="1.1" y="0px" x="0px" xmlns:cc="http://creativecommons.org/ns#" xmlns:dc="http://purl.org/dc/elements/1.1/" viewBox="0 0 100 125"><metadata><rdf:RDF><cc:Work rdf:about=""><dc:format>image/svg+xml</dc:format><dc:type rdf:resource="http://purl.org/dc/dcmitype/StillImage"/><dc:title/></cc:Work></rdf:RDF></metadata><g transform="translate(1.589 11.653)"><path d="m48.2 77.5c0.1 0.1 0.3 0.2 0.5 0.3 0.1 0.1 0.2 0.2 0.3 0.2 0.3 0.1 0.6 0.2 1 0.2 0.6 0.1 1.3-0.2 1.7-0.7 0 0 0.1 0 0.1-0.1l26.4-26.4c1-1 1-2.6 0-3.6s-2.6-1-3.6 0c-11.5 11.7-18.2 18.4-22.1 22.4v-64.8c0-1.4-1.1-2.5-2.5-2.5s-2.5 1.1-2.5 2.5v64.6l-22.1-22c-1-1-2.6-1-3.6 0s-1 2.6 0 3.6z"/><path d="m76.4 92.4h-52.8c-1.4 0-2.5 1.1-2.5 2.5s1.1 2.5 2.5 2.5h52.8c1.4 0 2.5-1.1 2.5-2.5 0-1.3-1.1-2.5-2.5-2.5z"/></g></svg>
