<svg id="HOPPER" xmlns="http://www.w3.org/2000/svg" width="787" height="245" viewBox="0 0 787 245">
  <defs>
    <style>
      .cls-1, .cls-3 {
        fill: none;
        stroke: #28a987;
      }

      .cls-1 {
        stroke-width: 30px;
      }

      .cls-1, .cls-2 {
        fill-rule: evenodd;
      }

      .cls-2 {
        fill: #0b132b;
      }

      .cls-3 {
        stroke-width: 36px;
      }
    </style>
  </defs>
  <path class="cls-1" d="M785,230H82s-67.466,5.148-67-68c0.436-68.384,77-64,77-64H253"/>
  <path id="Hopper-2" data-name="Hopper" class="cls-2" d="M223.964,150.508V-0.1H190.19V58.955H130.075V-0.1H96.513V150.508h33.562v-59.9H190.19v59.9h33.774Zm69.368-26.553c-12.108,0-23.791-8.709-23.791-26.34,0-17.843,11.683-26.128,23.791-26.128,12.32,0,23.791,8.284,23.791,26.128S305.652,123.955,293.332,123.955Zm0-82.206c-31.438,0-56.079,23.154-56.079,55.866s24.641,56.079,56.079,56.079c31.65,0,56.078-23.366,56.078-56.079S324.982,41.749,293.332,41.749ZM393.713,190.867V142.223c4.886,5.948,15.082,10.621,28.677,10.621,29.526,0,50.343-23.154,50.343-55.441,0-31.65-18.48-55.017-49.069-55.017-15.082,0-26.552,6.585-31.013,13.382V44.935H361.425V190.867h32.288Zm47.37-93.252c0,17.631-11.259,26.34-24,26.34-12.533,0-23.791-8.921-23.791-26.34,0-17.631,11.258-26.128,23.791-26.128C429.824,71.488,441.083,79.984,441.083,97.615Zm76.438,93.252V142.223c4.886,5.948,15.082,10.621,28.677,10.621,29.526,0,50.343-23.154,50.343-55.441,0-31.65-18.48-55.017-49.069-55.017-15.082,0-26.552,6.585-31.013,13.382V44.935H485.233V190.867h32.288Zm47.37-93.252c0,17.631-11.259,26.34-24,26.34-12.533,0-23.791-8.921-23.791-26.34,0-17.631,11.258-26.128,23.791-26.128C553.632,71.488,564.891,79.984,564.891,97.615ZM633.47,85.082c0.637-7.86,7.434-17.843,21.029-17.843,15.294,0,20.817,9.771,21.242,17.843H633.47Zm44.608,27.4c-2.974,8.285-9.559,13.808-21.242,13.808-12.533,0-23.366-8.5-24-20.393h73.5a67.238,67.238,0,0,0,.638-9.983c0-33.987-20.18-54.167-52.893-54.167-27.4,0-52.68,21.667-52.68,55.654,0,35.474,25.915,56.291,55.017,56.291,26.765,0,43.546-15.294,48.644-33.562ZM786.622,44.935a31.9,31.9,0,0,0-8.5-1.062c-8.5,0-21.879,3.4-27.4,15.294V44.935H719.5V150.508h32.288v-46.1c0-21.03,11.683-28.677,24.641-28.677a43.821,43.821,0,0,1,10.2,1.062V44.935Z"/>
  <circle class="cls-3" cx="293.5" cy="97.5" r="41.469"/>
</svg>
