<?xml version="1.0" encoding="UTF-8" standalone="no"?>
<svg
   xmlns:dc="http://purl.org/dc/elements/1.1/"
   xmlns:cc="http://creativecommons.org/ns#"
   xmlns:rdf="http://www.w3.org/1999/02/22-rdf-syntax-ns#"
   xmlns:svg="http://www.w3.org/2000/svg"
   xmlns="http://www.w3.org/2000/svg"
   xmlns:sodipodi="http://sodipodi.sourceforge.net/DTD/sodipodi-0.dtd"
   xmlns:inkscape="http://www.inkscape.org/namespaces/inkscape"
   width="450"
   height="450"
   viewBox="85 145 450 450"
   sodipodi:version="0.32"
   inkscape:version="0.92.3 (2405546, 2018-03-11)"
   sodipodi:docname="checkmark.svg"
   version="1.1"
   id="svg10">
  <defs
     id="defs14" />
  <sodipodi:namedview
     pagecolor="#ffffff"
     bordercolor="#666666"
     borderopacity="1"
     objecttolerance="10"
     gridtolerance="10"
     guidetolerance="10"
     inkscape:pageopacity="0"
     inkscape:pageshadow="2"
     inkscape:window-width="1920"
     inkscape:window-height="1144"
     id="namedview12"
     showgrid="false"
     fit-margin-bottom="0"
     inkscape:zoom="0.59"
     inkscape:cx="208.45909"
     inkscape:cy="180.21933"
     inkscape:window-x="184"
     inkscape:window-y="0"
     inkscape:window-maximized="1"
     inkscape:current-layer="svg10" />
  <metadata
     id="metadata2">
    <rdf:RDF>
      <cc:Work
         rdf:about="">
        <dc:format>image/svg+xml</dc:format>
        <dc:type
           rdf:resource="http://purl.org/dc/dcmitype/StillImage" />
        <dc:title></dc:title>
      </cc:Work>
    </rdf:RDF>
  </metadata>
  <path
     style="fill:#5fd35f;fill-opacity:1;fill-rule:evenodd;stroke:none;stroke-width:1px;stroke-linecap:butt;stroke-linejoin:miter;stroke-opacity:1"
     d="m 508.74477,276.99015 c -49.32288,-33.81781 -72.65918,-63.39452 -72.65918,-63.39452 -91.08575,53.67063 -187.81802,244.24156 -187.81802,244.24156 -45.33303,-63.8178 -90.91373,-81.61787 -90.91373,-81.61787 -20.49148,27.3818 -55.81293,63.87384 -55.81293,63.87384 82.38309,22.18746 151.53232,103.60699 151.53232,103.60699 149.48387,-234.68693 255.67154,-266.71 255.67154,-266.71 z"
     sodipodi:nodetypes="ccccccc"
     id="path4"
     inkscape:connector-curvature="0" />
  <path
     sodipodi:type="arc"
     style="opacity:0.2;fill:#999999;fill-opacity:1;stroke:none;stroke-width:1;stroke-miterlimit:4;stroke-dasharray:none;stroke-opacity:0"
     sodipodi:cx="247.14285"
     sodipodi:cy="568.07648"
     sodipodi:rx="64.285713"
     sodipodi:ry="7.1428571"
     d="m 310.60154,566.93442 a 64.285713,7.1428571 0 0 1 -53.10177,8.19161 64.285713,7.1428571 0 0 1 -73.79001,-5.89008 64.285713,7.1428571 0 0 1 52.91946,-8.20616 64.285713,7.1428571 0 0 1 73.92076,5.8698"
     sodipodi:start="6.1226078"
     sodipodi:end="6.1176667"
     sodipodi:open="true"
     id="path6" />
  <path
     style="opacity:0.27777782;fill:#5fd35f;fill-opacity:1;fill-rule:evenodd;stroke:none;stroke-width:1px;stroke-linecap:butt;stroke-linejoin:miter;stroke-opacity:1"
     d="m 518.74479,277.27587 c -49.32288,-33.81781 -72.65918,-63.39452 -72.65918,-63.39452 -91.08575,53.67063 -187.81802,244.24156 -187.81802,244.24156 -45.33303,-63.8178 -90.91373,-81.61787 -90.91373,-81.61787 -20.49148,27.3818 -55.81293,63.87384 -55.81293,63.87384 82.38309,22.18746 151.53232,103.60699 151.53232,103.60699 149.48387,-234.68693 255.67154,-266.71 255.67154,-266.71 z"
     sodipodi:nodetypes="ccccccc"
     id="path8"
     inkscape:connector-curvature="0" />
</svg>
