<?xml version="1.0" encoding="UTF-8" standalone="no"?>
<svg
   xmlns:dc="http://purl.org/dc/elements/1.1/"
   xmlns:cc="http://creativecommons.org/ns#"
   xmlns:rdf="http://www.w3.org/1999/02/22-rdf-syntax-ns#"
   xmlns:svg="http://www.w3.org/2000/svg"
   xmlns="http://www.w3.org/2000/svg"
   xmlns:sodipodi="http://sodipodi.sourceforge.net/DTD/sodipodi-0.dtd"
   xmlns:inkscape="http://www.inkscape.org/namespaces/inkscape"
   width="34px"
   height="34px"
   viewBox="0 0 34 34"
   version="1.1"
   id="svg38"
   sodipodi:docname="network_icons_checked.svg"
   inkscape:export-filename="/home/pietervdvn/git/genk-cycling-frontend/img/network_icons_checked.svg.png"
   inkscape:export-xdpi="3900"
   inkscape:export-ydpi="3900"
   inkscape:version="0.92.3 (2405546, 2018-03-11)">
  <metadata
     id="metadata42">
    <rdf:RDF>
      <cc:Work
         rdf:about="">
        <dc:format>image/svg+xml</dc:format>
        <dc:type
           rdf:resource="http://purl.org/dc/dcmitype/StillImage" />
      </cc:Work>
    </rdf:RDF>
  </metadata>
  <sodipodi:namedview
     pagecolor="#ffffff"
     bordercolor="#666666"
     borderopacity="1"
     objecttolerance="10"
     gridtolerance="10"
     guidetolerance="10"
     inkscape:pageopacity="0"
     inkscape:pageshadow="2"
     inkscape:window-width="1920"
     inkscape:window-height="1144"
     id="namedview40"
     showgrid="false"
     inkscape:zoom="9.8163059"
     inkscape:cx="32.922872"
     inkscape:cy="26.388346"
     inkscape:window-x="184"
     inkscape:window-y="0"
     inkscape:window-maximized="1"
     inkscape:current-layer="svg38" />
  <!-- Generator: Sketch 51.1 (57501) - http://www.bohemiancoding.com/sketch -->
  <title
     id="title2">Group 15</title>
  <desc
     id="desc4">Created with Sketch.</desc>
  <defs
     id="defs6" />
  <g
     id="Page-1"
     stroke="none"
     stroke-width="1"
     fill="none"
     fill-rule="evenodd">
    <g
       id="Desktop"
       transform="translate(-816.000000, -426.000000)">
      <g
         id="Group-11"
         transform="translate(804.000000, 350.000000)">
        <g
           id="Group-15"
           transform="translate(12.000000, 76.000000)">
          <g
             id="Group-6"
             fill="#FFFFFF">
            <circle
               id="Oval-4"
               cx="17"
               cy="17"
               r="17" />
          </g>
          <g
             id="network"
             transform="translate(8.000000, 8.000000)"
             stroke="#2D4959">
            <g
               id="Group">
              <circle
                 id="Oval-2"
                 fill="#F2F2F2"
                 cx="5"
                 cy="3"
                 r="1" />
              <circle
                 id="circle11"
                 fill="#F2F2F2"
                 cx="1"
                 cy="16"
                 r="1" />
              <circle
                 id="circle13"
                 fill="#F2F2F2"
                 cx="12"
                 cy="6"
                 r="1" />
              <circle
                 id="circle15"
                 fill="#F2F2F2"
                 cx="10"
                 cy="14"
                 r="1" />
              <circle
                 id="circle17"
                 fill="#F2F2F2"
                 cx="15"
                 cy="1"
                 r="1" />
              <circle
                 id="circle19"
                 fill="#F2F2F2"
                 cx="15"
                 cy="11"
                 r="2" />
              <circle
                 id="circle21"
                 fill="#F2F2F2"
                 cx="5.5"
                 cy="9.5"
                 r="2.5" />
              <path
                 d="M1.5,15.5 L4.5,11.5"
                 id="Path-9" />
              <path
                 d="M6,3 L11.5,5.5"
                 id="Path-11" />
              <path
                 d="M9,13 L7,11"
                 id="Path-12" />
              <path
                 d="M10.5,13.5 L13.5,12.5"
                 id="Path-13" />
              <path
                 d="M13.5,10.5 L8,10"
                 id="Path-15" />
              <path
                 d="M8,8 L11.5,6.5"
                 id="Path-16" />
              <path
                 d="M12.5,6.5 L14,9"
                 id="Path-17" />
              <path
                 d="M15,9 L15,2"
                 id="Path-18" />
            </g>
            <path
               d="M5,7 L5,4"
               id="Path-10" />
          </g>
        </g>
      </g>
    </g>
  </g>
  <g
     transform="matrix(0.02709365,0,0,0.0286352,18.629316,-2.6652491)"
     id="layer1"
     inkscape:label="Layer 1">
    <path
       inkscape:export-ydpi="72.839996"
       inkscape:export-xdpi="72.839996"
       inkscape:export-filename="C:\Documents and Settings\Staff\Desktop\photos\SVG\path2161.png"
       sodipodi:nodetypes="ccccccc"
       id="path5075"
       d="m 508.74477,226.99015 c -49.32288,-33.81781 -72.65918,-63.39452 -72.65918,-63.39452 -91.08575,53.67063 -187.81802,244.24156 -187.81802,244.24156 -45.33303,-63.8178 -90.91373,-81.61787 -90.91373,-81.61787 -20.49148,27.3818 -55.81293,63.87384 -55.81293,63.87384 82.38309,22.18746 151.53232,103.60699 151.53232,103.60699 149.48387,-234.68693 255.67154,-266.71 255.67154,-266.71 z"
       style="fill:#5fd35f;fill-opacity:1;fill-rule:evenodd;stroke:none;stroke-width:1px;stroke-linecap:butt;stroke-linejoin:miter;stroke-opacity:1"
       inkscape:connector-curvature="0" />
    <path
       inkscape:export-ydpi="72.839996"
       inkscape:export-xdpi="72.839996"
       inkscape:export-filename="C:\Documents and Settings\Staff\Desktop\photos\SVG\path2161.png"
       transform="translate(8.5714285,-11.428571)"
       sodipodi:open="true"
       sodipodi:end="6.1176667"
       sodipodi:start="6.1226078"
       d="m 302.03011,528.36301 a 64.285713,7.1428571 0 0 1 -53.10177,8.1916 64.285713,7.1428571 0 0 1 -73.79001,-5.89007 64.285713,7.1428571 0 0 1 52.91947,-8.20616 64.285713,7.1428571 0 0 1 73.92075,5.8698"
       sodipodi:ry="7.1428571"
       sodipodi:rx="64.285713"
       sodipodi:cy="529.50507"
       sodipodi:cx="238.57143"
       id="path3131"
       style="opacity:0.2;fill:#999999;fill-opacity:1;stroke:none;stroke-width:1;stroke-miterlimit:4;stroke-dasharray:none;stroke-opacity:0"
       sodipodi:type="arc" />
    <path
       inkscape:export-ydpi="72.839996"
       inkscape:export-xdpi="72.839996"
       sodipodi:nodetypes="ccccccc"
       id="path2161"
       d="m 518.74479,227.27587 c -49.32288,-33.81781 -72.65918,-63.39452 -72.65918,-63.39452 -91.08575,53.67063 -187.81802,244.24156 -187.81802,244.24156 -45.33303,-63.8178 -90.91373,-81.61787 -90.91373,-81.61787 -20.49148,27.3818 -55.81293,63.87384 -55.81293,63.87384 82.38309,22.18746 151.53232,103.60699 151.53232,103.60699 149.48387,-234.68693 255.67154,-266.71 255.67154,-266.71 z"
       style="opacity:0.27777782;fill:#5fd35f;fill-opacity:1;fill-rule:evenodd;stroke:none;stroke-width:1px;stroke-linecap:butt;stroke-linejoin:miter;stroke-opacity:1"
       inkscape:connector-curvature="0" />
  </g>
</svg>
